<?xml version="1.0" encoding="UTF-8" standalone="no"?>
<svg
   xmlns:dc="http://purl.org/dc/elements/1.1/"
   xmlns:cc="http://creativecommons.org/ns#"
   xmlns:rdf="http://www.w3.org/1999/02/22-rdf-syntax-ns#"
   xmlns:svg="http://www.w3.org/2000/svg"
   xmlns="http://www.w3.org/2000/svg"
   viewBox="0 0 1352.28 283.92001"
   height="283.92001"
   width="1352.28"
   xml:space="preserve"
   id="svg2"
   version="1.1"><metadata
     id="metadata8"><rdf:RDF><cc:Work
         rdf:about=""><dc:format>image/svg+xml</dc:format><dc:type
           rdf:resource="http://purl.org/dc/dcmitype/StillImage" /></cc:Work></rdf:RDF></metadata><defs
     id="defs6" /><g
     transform="matrix(1.3333333,0,0,-1.3333333,0,283.92)"
     id="g10"><g
       transform="scale(0.1)"
       id="g12"><path
         id="path14"
         style="fill:#ffffff;fill-opacity:0;fill-rule:evenodd;stroke:none"
         d="m 72.9023,127.801 c 1.254,-11.762 -1.6406,-31.0315 0,-43.1994 0.6641,-4.9414 -1.8007,-6.8828 1.8008,-8.1016 10.9453,-3.7187 40.3599,0 60.2969,0 2400.63,0.1719 4818.89,-0.1289 7211.7,0 2.62,10.6094 2.57,31.039 1.8,45 -0.15,2.68 2.29,8.621 -2.7,9 -2423.42,0 -4848.51,0 -7272.0031,0 -1.0469,-0.148 -0.9727,-1.422 -0.8946,-2.699 z M 3481.2,338.398 c 1.15,-8.757 -2.33,-22.128 1.8,-27.898 1262.01,0 2523.54,0 3785.4,0 0,10.199 0,20.398 0,30.602 -1262.22,0 -2524.15,0 -3786.3,0 -1.05,-0.153 -0.98,-1.434 -0.9,-2.704 z m -3128.403,0 c 0,-9.296 0,-18.597 0,-27.898 848.523,0 1696.723,0 2545.203,0 0,10.199 0,20.398 0,30.602 -848.19,0 -1696.14,0 -2544.301,0 -1.047,-0.153 -0.972,-1.434 -0.902,-2.704 z m 2210.403,175.5 c 4.03,-8.679 40.41,-4.5 55.8,-4.5 53.95,0 99.57,-0.898 150.3,-0.898 9.5,0 21.36,-2.582 26.1,4.5 1.36,8.77 -7.46,13.75 -13.5,19.801 -5.08,5.078 -12.07,15.461 -18.9,17.097 -11.78,2.84 -29.24,0 -45,0 -44.46,0 -94.45,0 -135,0 -3.21,-8.238 -24.69,-25.468 -19.8,-36 z m -248.4,0 c 6.31,-6.32 16.51,-4.5 25.2,-4.5 60.05,0 122.25,0 180.9,0 8.51,0 20.68,-3.226 26.1,4.5 1.47,8.852 -8.2,13.043 -14.4,18.903 -5.21,4.918 -11.93,15.418 -18.9,17.097 -11.65,2.813 -28.69,0 -44.1,0 -44.41,0 -94.44,0 -135,0 -6.6,-11.988 -19.81,-17.378 -19.8,-36 z m -332.1,-3.597 c 25.64,1.277 45.62,11.918 59.4,25.199 4.36,4.191 12.5,9.41 10.8,14.398 -60.3,-0.597 -123,1.204 -181.8,-0.898 25.69,-20.359 66.46,-40.961 111.6,-38.699 z m -480.6,0.898 c 25.87,0.91 40.94,19.692 52.2,38.699 -43.8,-0.597 -90,1.204 -132.3,-0.898 20.93,-13.52 45.7,-39.02 80.1,-37.801 z m -199.8,0.903 c 22.71,2.539 43.53,20.617 56.7,32.398 1.49,1.34 6.73,2.031 4.5,5.398 -52.5,-0.597 -107.4,1.204 -158.4,-0.898 21.88,-19.961 58.85,-41.191 97.2,-36.898 z M 716.402,517.5 c 4.403,-8.52 39.52,-4.5 54.899,-4.5 43.058,0 79.304,0 118.797,0 20.562,0 42.992,-2.07 57.601,2.699 1.262,7.942 -6.023,14.129 -11.699,19.801 -5.277,5.281 -12.227,13.012 -18.004,14.398 -12.019,2.903 -29.789,0 -45.894,0 -46.196,0 -98.157,0 -140.403,0 -2.453,-9.16 -21.765,-19.886 -15.297,-32.398 z m -246.601,0.898 c 4.176,-8.226 40.937,-4.5 55.801,-4.5 53.57,0 99.007,-0.898 150.296,-0.898 7.79,0 23.356,-2.379 25.2,5.398 1.558,6.563 -8.676,12.911 -13.496,17.102 -6.364,5.531 -10.661,12.852 -17.106,14.398 -12.398,2.993 -30.555,0 -45.894,0 -46.321,0 -95.934,0 -139.504,0 -3.368,-10.75 -22.231,-17.82 -15.297,-31.5 z M 2610.9,591.301 c -0.6,-4.571 -6,-7.832 -3.6,-10.801 42,0 84,0 126,0 -12.26,10.539 -11.26,42.129 -15.3,63.898 -38.1,0 -76.2,0 -114.3,0 -0.87,-15.988 9.12,-38.5 7.2,-53.097 z m -249.3,0 c -0.79,-4.973 -5.91,-7.672 -3.6,-10.801 41.7,0 83.4,0 125.1,0 -10.6,11.91 -10.22,42.57 -14.4,63.898 -38.1,0 -76.2,0 -114.3,0 -0.39,-15.589 9.56,-38.25 7.2,-53.097 z m -543.6,18 c 4.97,-7.653 16.31,-26.692 23.4,-28.801 6.76,-2.012 18.72,0 28.8,0 66.71,0 140.37,-0.012 202.5,0 6.8,19.91 13.46,39.941 16.2,63.898 -9.3,0 -18.6,0 -27.9,0 -15.37,-22.449 -30.73,-46.429 -54.9,-57.597 -35.22,-16.289 -67.59,15.359 -81.9,36 -4.95,7.14 -8.39,19.48 -14.4,21.597 -5.6,1.973 -18.12,0 -27,0 -28.26,0 -61,0 -84.6,0 6.11,-12.007 11.11,-21.718 19.8,-35.097 z m -674.1,35.097 c 9.77,-23.226 20,-46.007 35.1,-63.898 129,0 258,0 387,0 -0.33,9.031 6.74,36.949 -5.4,37.801 -6.39,0.449 -15.4,-17.922 -23.4,-24.301 -3.92,-3.141 -7.88,-5.699 -11.7,-7.199 -34.87,-13.66 -41.04,31.609 -45,57.597 -39.9,0 -79.8,0 -119.7,0 -4.82,-27.046 -13.01,-49.578 -35.1,-57.597 -36.5,-13.25 -53.27,29.929 -63,57.597 -39.6,0 -79.2,0 -118.8,0 z M 759.602,594 c -1.004,-5.5 -8.211,-9.871 -6.301,-13.5 44.695,0 89.398,0 134.101,0 -2.734,5.859 -10.316,8.34 -13.5,16.191 -5.511,13.61 -4.527,32.821 -9,47.707 -37.8,0 -75.601,0 -113.402,0 -0.129,-14.738 10.766,-35.757 8.102,-50.398 z m -254.7,-13.5 c 44.7,0 89.399,0 134.098,0 -14.422,10.18 -16.672,40.328 -20.699,63.898 -37.805,0 -75.602,0 -113.399,0 1.996,-21.078 15.512,-48.886 0,-63.898 z M 2075.4,675 c 5.7,0 11.4,0 17.1,0 0.22,10.949 -16.32,7.859 -17.1,0 z m 515.7,63.898 c 1.14,-19.269 5.75,-42.847 8.1,-63.898 38.1,0 76.2,0 114.3,0 -2.21,21.789 -5.8,42.199 -8.1,63.898 -38.1,0 -76.2,0 -114.3,0 z m -249.3,0 c 0.21,-20.187 5.78,-42.82 8.1,-63.898 38.1,0 76.2,0 114.3,0 -3.21,21.09 -5.98,42.621 -9,63.898 -37.8,0 -75.6,0 -113.4,0 z m -582.3,0 c 6.4,-22.699 15.27,-42.937 23.4,-63.898 38.1,0 76.2,0 114.3,0 -6.93,20.969 -14.6,41.211 -19.8,63.898 -39.3,0 -78.6,0 -117.9,0 z M 1350,738 c 4.5,-20.102 7.6,-41.602 10.8,-63 38.1,0 76.2,0 114.3,0 -3.64,21.262 -7.32,42.488 -10.8,63.898 -37.8,-0.597 -78,1.204 -114.3,-0.898 z m -234,0.898 c 1.54,-21.558 10.53,-43.468 16.2,-63.898 39.9,0.602 82.2,-1.199 120.6,0.898 -6.76,19.641 -11.5,41.301 -16.2,63 -40.2,0 -80.4,0 -120.6,0 z m -381.602,0 c 4.211,-20.988 7.54,-42.859 11.7,-63.898 37.804,0 75.601,0 113.406,0 -4.262,20.941 -7.477,42.93 -11.707,63.898 -37.797,0 -75.594,0 -113.399,0 z m -246.601,0 c 4.055,-21.148 7.433,-42.98 11.707,-63.898 37.5,0 75,0 112.5,0 -2.91,21.988 -7.758,42.051 -10.805,63.898 -37.801,0 -75.597,0 -113.402,0 z m 2089.803,94.5 c 3.32,-20.976 5.46,-43.136 9,-63.898 38.1,0 76.2,0 114.3,0 -2.24,21.762 -5.45,42.559 -8.1,63.898 -38.4,0 -76.8,0 -115.2,0 z m -249.3,0 c 0.48,-19.929 5.33,-43.269 8.1,-63.898 38.1,0 76.2,0 114.3,0 -2.89,21.41 -5.63,42.98 -9,63.898 -37.8,0 -75.6,0 -113.4,0 z m -594,0 c 3.95,-22.449 10.17,-42.628 15.3,-63.898 39.9,0.602 82.2,-1.199 120.6,0.898 -5.62,19.582 -8.76,41.653 -12.6,63 -41.1,0 -82.2,0 -123.3,0 z m -399.6,0 c 3.43,-21.468 6.73,-43.07 10.8,-63.898 37.8,0 75.6,0 113.4,0 -3.05,21.551 -7.35,41.84 -9.9,63.898 -38.1,0 -76.2,0 -114.3,0 z m -234,0 c -1.19,-21.289 4.6,-43.386 7.2,-63.898 40.5,0 81,0 121.5,0 -3.44,21.77 -9.37,41.02 -11.7,63.898 -39,0 -78,0 -117,0 z m -382.501,0 c 3.278,-21.628 7.524,-42.269 10.801,-63.898 37.801,0 75.602,0 113.402,0 -3.269,21.629 -7.351,42.449 -10.8,63.898 -37.801,0 -75.602,0 -113.403,0 z m -245.699,0 c 0.637,-20.367 7.133,-42.66 9.902,-63.898 37.5,0.602 77.399,-1.199 113.399,0.898 -4.789,20.114 -7.285,42.524 -11.699,63 -37.204,0 -74.399,0 -111.602,0 z M 2565,927 c 3.8,-20.199 5.33,-42.672 9,-63 38.1,0.602 78.6,-1.199 115.2,0.898 -3.34,20.364 -5.98,41.411 -8.1,63 -38.4,-0.597 -79.2,1.204 -116.1,-0.898 z m -251.1,0.898 c 3.21,-21.089 5.98,-42.617 9,-63.898 38.1,0.602 78.6,-1.199 115.2,0.898 -3.89,20.122 -5.87,42.133 -9,63 -38.4,0 -76.8,0 -115.2,0 z m -596.7,0 c 1.24,-19.757 7.34,-42.457 9.9,-63.898 41.7,0 83.4,0 125.1,0 -2.09,21.91 -5.93,42.07 -8.1,63.898 -42.3,0 -84.6,0 -126.9,0 z m -396.9,0 c 0.46,-20.25 6.8,-42.398 9,-63.898 38.1,0 76.2,0 114.3,0 -3.31,21.289 -7.26,41.941 -9.9,63.898 -37.8,0 -75.6,0 -113.4,0 z m -214.2,0 c -4.78,-18.918 -6.76,-40.636 -7.2,-63.898 38.1,0 76.2,0 114.3,0 -1.71,19.648 -4.2,43.129 -1.8,63.898 -35.1,0 -70.2,0 -105.3,0 z m -404.096,0 c 3.457,-21.437 7.117,-42.679 10.793,-63.898 37.805,0 75.601,0 113.402,0 -3.539,21.371 -7.066,42.73 -10.801,63.898 -37.8,0 -75.597,0 -113.394,0 z m -245.703,0 c 0.691,-20.308 6.672,-43.128 9.898,-63.898 37.5,0 75,0 112.5,0 -3.062,21.84 -6.988,42.809 -10.801,63.898 -37.199,0 -74.398,0 -111.597,0 z M 2554.2,1022.4 c 0.04,-20.06 4.97,-43.021 7.2,-63.9 38.4,0 76.8,0 115.2,0 -2.4,21.602 -4.87,43.14 -8.1,63.9 -38.1,0 -76.2,0 -114.3,0 z m -252,0 c -0.22,-20.32 5.97,-42.029 7.2,-63.9 38.4,0 76.8,0 115.2,0 -2.04,21.961 -5.62,42.37 -8.1,63.9 -38.1,0 -76.2,0 -114.3,0 z m -597.6,0 c 0.83,-19.27 5.38,-42.63 7.2,-63.9 42.6,0.602 87.6,-1.199 128.7,0.898 -3.29,20.711 -5.89,42.112 -9,63.002 -42.3,0 -84.6,0 -126.9,0 z m -399.6,0 c 0.54,-20.16 6.73,-42.47 9,-63.9 38.1,0 76.2,0 114.3,0 -3.14,21.461 -6.63,42.56 -9.9,63.9 -37.8,0 -75.6,0 -113.4,0 z m -190.8,-63.9 c 33.3,0 66.6,0 99.9,0 2.86,24.129 9.51,44.49 17.1,63.9 -29.1,0 -58.2,0 -87.3,0 -12.79,-18.41 -22.33,-40.072 -29.7,-63.9 z m -428.399,63.9 c 3.687,-21.21 7.445,-42.361 10.801,-63.9 37.796,0 75.601,0 113.398,0 -2.652,21.941 -7.461,41.74 -9.898,63.9 -38.098,0 -76.2,0 -114.301,0 z m -246.602,0 c 3.61,-21.29 6.969,-42.83 10.801,-63.9 37.5,0 75,0 112.5,0 -2.516,22.078 -7.555,41.64 -9.898,63.9 -37.801,0 -75.598,0 -113.403,0 z M 2540.7,1116 c 3.29,-20.41 5.92,-41.48 8.1,-63 38.7,0 77.4,0 116.1,0 -2.63,21.37 -4.72,43.27 -8.1,63.9 -38.4,-0.6 -79.2,1.2 -116.1,-0.9 z m -252,0.9 c 1.31,-19.09 5.77,-42.83 8.1,-63.9 38.4,0 76.8,0 115.2,0 -2.04,21.96 -5.39,42.61 -8.1,63.9 -38.4,0 -76.8,0 -115.2,0 z m -592.2,0 c -0.34,-19.54 2.16,-44.04 4.5,-63.9 41.7,0 83.4,0 125.1,0 -3.11,21.19 -6.8,41.8 -9,63.9 -40.2,0 -80.4,0 -120.6,0 z m -475.2,0 c -17.91,-15.81 -37.99,-37.15 -52.2,-55.8 -1.6,-2.1 -5.3,-5.13 -3.6,-8.1 27,0 54,0 81,0 14.09,16.81 25.55,36.26 45,47.7 2.21,-16.09 5.5,-31.1 7.2,-47.7 38.1,0.6 78.6,-1.2 115.2,0.9 -3.98,20.32 -7.08,41.52 -9.9,63 -60.9,0 -121.8,0 -182.7,0 z m -550.804,0 c 3.055,-21.55 7.301,-41.9 9.902,-63.9 38.102,0 76.204,0 114.305,0 -4.035,20.87 -6.883,42.92 -10.801,63.9 -37.804,0 -75.601,0 -113.406,0 z m -247.5,-0.9 c 4.332,-20.27 7.332,-41.87 10.805,-63 37.801,0 75.597,0 113.402,0 -3.863,21.04 -7.16,42.65 -10.801,63.9 -37.5,-0.6 -77.402,1.2 -113.406,-0.9 z m 2106.904,96.3 c 0.43,-19.67 4.93,-43.07 7.2,-63.9 38.7,0 77.4,0 116.1,0 -2.64,21.36 -4.93,43.07 -8.1,63.9 -38.4,0 -76.8,0 -115.2,0 z m -253.8,0 c 0.76,-19.64 5.24,-43.36 8.1,-63.9 38.4,0 76.8,0 115.2,0 -1.51,22.19 -5.98,41.42 -7.2,63.9 -38.7,0 -77.4,0 -116.1,0 z m -578.7,0 c -2.63,-19.57 -2.74,-41.66 -2.7,-63.9 39.6,0 79.2,0 118.8,0 -2,20.51 -3.44,41.56 -3.6,63.9 -37.5,0 -75,0 -112.5,0 z m -423.9,0 c 0.14,-1.06 -0.16,-2.55 0.9,-2.7 3.44,-23.1 -1.24,-42.69 -10.8,-54 -2.07,-2.44 -7.36,-4.16 -5.4,-7.2 46.8,0 93.6,0 140.4,0 -3.09,21.51 -6.29,42.91 -9.9,63.9 -38.4,0 -76.8,0 -115.2,0 z m -619.199,-0.9 c 4.504,-20.1 7.031,-42.17 10.801,-63 37.796,0 75.597,0 113.398,0 -2.57,22.03 -7.156,42.05 -9.902,63.9 -37.797,-0.6 -77.996,1.2 -114.297,-0.9 z m -246.602,0.9 c 3.43,-21.47 6.731,-43.08 10.801,-63.9 37.5,0 75,0 112.5,0 -2.863,21.73 -7.051,42.15 -9.902,63.9 -37.797,0 -75.602,0 -113.399,0 z m 7130.701,-5.4 c 32.6,-3.37 30.54,60.65 0,56.7 -25.57,-3.3 -23.88,-54.23 0,-56.7 z m -5013,36 c 38.7,0 77.4,0 116.1,0 -3.15,23.56 -8.87,44.53 -17.1,63 -39.9,-0.6 -82.2,1.2 -120.6,-0.9 12.24,-15.66 17.29,-38.51 21.6,-62.1 z m -261.9,63 c 0,-19.8 5.76,-41.64 7.2,-63 40.8,0 81.6,0 122.4,0 0.62,19.91 7.54,37.66 14.4,50.4 2.36,4.38 6.07,8.73 5.4,12.6 -49.8,0 -99.6,0 -149.4,0 z M 1971,1259.1 c 3.86,-4.38 10.73,-14.79 15.3,-16.2 6.29,-1.93 13.28,1.49 18.9,0 -8.16,22.74 -18.57,43.23 -29.7,63 -17.1,-0.6 -36.6,1.2 -52.2,-0.9 16.82,-12.36 32.86,-29.1 47.7,-45.9 z m -270,-16.2 c 36.6,0 73.2,0 109.8,0 2.83,23.57 6.61,46.19 16.2,63 -36.6,0 -73.2,0 -109.8,0 -8.24,-18.16 -13.19,-39.61 -16.2,-63 z m -432,0 c 37.8,0 75.6,0 113.4,0 -6.26,23.74 -15.71,44.29 -27,63 -34.8,0 -69.6,0 -104.4,0 9.62,-17.38 14.72,-39.28 18,-63 z m -220.5,63 c -6.15,-10.26 -19.64,-24.83 -11.7,-40.5 18.18,-0.27 24.98,13.03 36,21.6 9.45,7.35 17.79,12.67 27,18.9 -17.1,0 -34.2,0 -51.3,0 z m -398.699,-63 c 37.801,0 75.597,0 113.398,0 -3.39,23.61 -9.765,44.23 -18,63 -38.699,0 -77.402,0 -116.097,0 10.132,-17.76 16.738,-39.06 20.699,-63 z m -256.5,63 c 0.476,-19.92 6.726,-41.87 9,-63 39,0 77.996,0 117,0 1.273,25.12 7.051,45.75 16.195,63 -47.394,0 -94.797,0 -142.195,0 z M 6332.4,972 c 13.51,0 48.25,-4.172 55.8,2.699 8.36,7.61 3.6,54.901 3.6,69.301 0.01,79.29 -3.04,148.16 -19.8,204.3 -22.02,73.76 -66.5,145.62 -156.59,142.2 -115.81,-4.39 -157.24,-117.68 -173.71,-226.8 -8.73,-57.84 -10.72,-122.43 -11.7,-187.2 -2.03,-133.559 9.37,-257.371 48.6,-348.301 29.22,-67.699 76.56,-128.769 171,-126.898 81.04,1.609 122.86,67.277 141.3,132.301 1.56,5.468 5.72,14.238 0,19.796 -11.29,3.301 -16.23,-9.679 -20.7,-16.199 -15.62,-22.769 -34.17,-46.64 -59.4,-58.5 -26.48,-12.449 -62.73,-9.5 -85.5,5.403 -43.52,28.449 -57.56,97.058 -63,164.699 -5.84,72.539 -0.3,149.539 -3.6,223.199 58.73,0 114.68,0 173.7,0 z M 5147.1,513.898 c 19.58,12.801 36.15,37.774 43.2,64.801 2.42,9.262 6.09,26.77 -0.9,28.801 -7.11,2.059 -20.03,-18.172 -24.3,-21.602 -6.7,-5.386 -22.7,-14.269 -34.2,-11.707 -25.62,5.75 -19.97,74.329 -21.6,108.911 -7.94,167.886 -14.49,335.988 -20.7,502.198 -1.57,42.01 -6.99,76.18 -22.5,108.9 -25.69,54.22 -78.65,105.59 -163.8,98.1 -59.43,-5.23 -111.91,-50.98 -143.1,-88.2 -10.92,-13.04 -28.19,-29 -22.5,-48.6 19.84,-0.33 28.79,16.03 42.3,25.2 12.97,8.8 28.44,16.62 45.9,24.3 37.33,16.42 109.59,34.79 133.2,-6.3 13.98,-24.32 19.17,-103.25 9,-135.9 -4.36,-13.99 -20.04,-25.44 -32.4,-35.1 -83.47,-65.28 -163.05,-144.7 -180.9,-272.7 -11.15,-79.961 2.84,-170.078 22.5,-229.5 10.71,-32.359 23.58,-59.828 45.9,-83.699 18.82,-20.11 63.16,-46.801 102.6,-36 36.24,9.929 59.35,40.41 90,59.398 27.22,-27.461 80.18,-85.39 132.3,-51.301 z M 4332.6,1361.7 c -0.52,7.37 2.12,23.96 -3.6,29.7 -5.18,5.2 -28.64,2.7 -40.5,2.7 -42.49,0 -105.27,1.36 -135,-1.8 -3.28,-16.8 15.42,-26.28 27.9,-36.9 5.19,-4.41 11.72,-10.72 18,-16.2 7.04,-6.14 15.56,-10 18,-17.1 3.74,-10.87 2.39,-29.27 3.6,-45 16.76,-216.66 27.82,-431.1 45,-644.401 1.23,-15.308 5.52,-35.109 3.6,-45.898 -1.1,-6.192 -8.61,-12.77 -13.5,-18.903 -11.19,-14.019 -19.05,-23.726 -28.8,-36 -5.22,-6.558 -13.08,-12.726 -10.8,-22.5 6.8,-5.918 17.53,-3.597 27,-3.597 52.71,0 98.12,-0.903 152.1,-0.903 14,0 53.89,-3.75 56.7,4.5 2.56,7.524 -8.38,16.911 -13.5,21.602 -7.56,6.93 -13.76,11.961 -18.9,17.102 -10.23,10.238 -30.71,24.468 -35.1,36 -3.55,9.296 -3.41,29.57 -4.5,45 -12.36,174.437 -21.81,341.679 -34.2,518.398 -4.71,67.18 -0.69,132.34 36.9,161.1 6.29,4.81 15.17,8.96 22.5,9.9 42.32,5.44 72.7,-19.59 90,-46.8 6.53,-10.26 7.66,-27.07 25.2,-27 8.78,13.48 2.71,31.37 -0.9,45 -11.03,41.7 -33.7,82.69 -68.4,98.1 -42.2,18.74 -76.33,-12.36 -95.4,-33.3 -7.32,-8.04 -12,-18.88 -21.6,-23.4 0.13,10.99 -0.98,18.9 -1.8,30.6 z M 3905.1,980.102 c 15.6,-0.313 49.08,-3.301 55.8,3.597 5.52,5.66 2.62,22.791 1.8,33.301 -3.06,39.13 -4.48,74.93 -8.1,110.7 -5,49.35 -15.68,92.37 -29.7,128.7 -28.22,73.14 -78.22,145.89 -177.3,138.6 -96.73,-7.11 -132.51,-95.55 -146.7,-185.4 -15.31,-96.96 -4.16,-213.428 7.2,-305.998 11.72,-95.59 29.93,-187.411 65.7,-263.704 32.75,-69.859 88.96,-141.957 196.2,-133.207 57.64,4.707 93.6,51.329 110.7,99.911 3.32,9.437 16.74,51.578 6.3,54.898 -10.06,3.199 -16.21,-13.559 -22.5,-23.398 -18.69,-29.231 -40.26,-56.09 -80.1,-60.301 -60.11,-6.36 -88.77,37.39 -107.1,78.301 -38.56,86.027 -35.74,212.359 -47.7,324.898 60.56,0.102 116.45,0.27 175.5,-0.898 z M 3042,1395.9 c -93.22,-8.2 -115.91,-125.53 -110.7,-237.6 2.48,-53.44 9.27,-106.43 14.4,-158.402 15.59,-157.828 28.85,-321.519 95.4,-423 22.89,-34.91 54.04,-64.207 104.4,-68.398 40.29,-3.359 70.58,14.691 90,37.801 6.57,7.82 12.05,16.777 19.8,23.398 7.91,-72.379 20.28,-184.469 -40.5,-205.199 -38.69,-13.199 -82.17,5.59 -107.1,21.602 -13.9,8.918 -26.71,19.757 -37.8,30.589 -10.96,10.739 -19.59,28.969 -36,30.61 -5.68,-13.84 2.42,-28.301 8.1,-38.699 18.19,-33.301 45.29,-63.723 74.7,-84.602 40.02,-28.41 109.7,-50.48 164.7,-25.199 95.29,43.789 91.36,198.461 80.1,331.199 -10.86,128.039 -27.2,254.75 -39.6,383.4 -10.52,109.22 -23.25,225.8 -34.2,336.6 -1.47,14.89 -1.8,41.75 -8.1,45 -9.83,5.07 -18.63,-5.53 -26.1,-10.8 -24.38,-17.19 -49.67,-32.99 -71.1,-47.7 -35.31,30.31 -71.5,65.46 -140.4,59.4 z m -1209.6,2.7 c -42.53,-3.13 -74.33,-24.35 -93.6,-50.4 -2.32,-3.14 -6.03,-7.54 -5.4,-11.7 73.2,0 146.4,0 219.6,0 -23.44,32.21 -61.04,66.48 -120.6,62.1 z m 417.6,1.8 c 1.1,-19.31 5.88,-42.72 8.1,-63.9 116.1,0 232.2,0 348.3,0 -23.94,50.24 -126.27,82.1 -188.1,45 -17.46,-10.47 -28.8,-26.31 -44.1,-38.7 -2,19.6 -5.6,37.61 -7.2,57.6 -39,0 -78,0 -117,0 z m -974.7,-19.8 c -23.26,11.7 -50.47,20.22 -81.9,19.8 -45.84,-0.6 -84.52,-29.24 -109.8,-52.2 -3.36,-3.05 -10.2,-8.8 -8.1,-11.7 85.2,0 170.4,0 255.6,0 -12.39,18.51 -33.16,32.72 -55.8,44.1 z m -868.499,20.7 c -28.485,0 -58.047,2.61 -80.102,0.9 -3.222,-0.25 -7.39,-0.75 -8.101,-4.5 2.519,-15.09 18.218,-23.78 30.601,-33.3 7.895,-6.06 28.344,-25.82 37.805,-27.9 11.504,-2.53 28.445,0 42.297,0 98.219,0 204.082,0 297.902,0 -24.277,39.38 -73.68,70.04 -144.004,63.9 -31.004,-2.7 -51.398,-19.29 -67.5,-36 -5.445,-5.65 -9.972,-12.67 -17.101,-16.2 -4.989,16.31 -3.801,38.79 -11.7,52.2 -23.425,1.62 -51.625,0.9 -80.097,0.9 z M 2237.4,1494 c -0.35,-20.16 6.24,-41.16 7.2,-63 39.3,0 78.6,0 117.9,0 -3.34,20.66 -5.8,42.2 -9,63 -38.7,0 -77.4,0 -116.1,0 z m 5598.01,18 c -8.01,4.01 -26.35,6.57 -36.01,3.6 -46.07,-14.17 -52.2,-81.3 -52.2,-148.5 0,-58.47 6.83,-114.83 28.8,-141.3 10.56,-12.72 27.33,-20.33 46.8,-18.9 29.65,2.18 42.55,26.26 47.7,54 -7.96,-0.56 -10.19,-9.63 -14.4,-14.4 -4.52,-5.13 -10.54,-10.35 -17.1,-12.6 -36.4,-12.5 -44.4,26.14 -46.8,55.8 -2.2,27.15 -0.93,56.12 0,81 25.51,0.6 53.39,-1.19 77.4,0.9 4.75,53.85 2.57,121.97 -34.19,140.4 z m -5611.51,76.5 c 0.06,-20.34 5.68,-42.92 8.1,-63.9 39,0 78,0 117,0 -2.49,21.81 -5.76,42.84 -9,63.9 -38.7,0 -77.4,0 -116.1,0 z m 4930.2,18 c -30.4,0 -40.5,5.14 -40.5,-27 0,-32.21 -4.85,-64.83 -9,-85.5 -8.58,-42.76 -23.13,-83.43 -56.69,-96.3 -9.83,-3.76 -34.01,-4.1 -35.11,-13.5 -0.92,-7.89 25.19,-27.9 28.8,-31.5 10.14,-10.15 26.18,-19.07 29.7,-31.5 3.54,-12.51 0.9,-33.83 0.9,-53.1 -0.02,-202.09 0.02,-394.799 0,-596.702 -0.01,-72.16 5.54,-141.628 54,-163.796 35.33,-16.161 85.24,-9.891 112.5,10.796 19.59,14.872 33.98,38.243 43.2,62.102 2.78,7.211 9.14,17.371 3.6,27 -9.99,3.121 -13.94,-7.93 -18.9,-13.5 -5.22,-5.859 -12.42,-11.691 -18.9,-16.199 -20.69,-14.41 -43.1,-8.852 -54,10.801 -14.06,25.32 -8.1,73.296 -8.1,112.5 0,199.527 0,417.858 0,610.198 12.16,16.33 34.98,22.31 57.6,27.9 46.91,11.6 95.36,16.73 145.8,25.2 19.78,3.32 57.32,4.04 54.9,29.7 -7.11,6.25 -19.05,3.6 -28.8,3.6 -55.65,0 -108.63,0 -163.8,0 -15.81,0 -55.86,-4.44 -63,2.7 -6.06,6.06 -2.7,37.67 -2.7,49.5 0,17.13 0,36.76 0,52.2 0,35.03 2.14,72.9 -2.69,102.6 -6.54,3.03 -17.52,1.8 -28.81,1.8 z m 496.8,18 c -3.23,-12.53 16.59,-14.66 19.8,-27.9 3.27,-13.49 0,-33.1 0,-49.5 0,-17.29 0,-33.69 0,-49.5 -11.29,12.45 -30.33,25.2 -52.2,17.1 -17.95,-6.65 -26.06,-31.66 -30.59,-57.6 -8.86,-50.69 -7.16,-115.66 -1.81,-167.4 2.74,-26.54 6.91,-54.89 18.9,-70.2 17.18,-21.95 52.14,-11.37 65.7,8.1 0,-6.6 0,-13.2 0,-19.8 17.76,-1.47 41.65,-1.51 59.4,0 -0.91,12.35 -16.98,16.21 -19.8,27.9 -3.12,12.97 0,31.9 0,48.6 0.02,112.35 0.72,233.84 -0.9,340.2 -19.5,0 -38.99,0 -58.5,0 z m -1048.5,71.1 c -5.2,-8.65 4.04,-15.02 9,-19.8 5.67,-5.46 11.79,-11.26 17.1,-16.2 8.91,-8.28 29.3,-22.91 32.4,-34.2 4.16,-15.16 0.9,-41.24 0.9,-63.9 -0.02,-308.09 2.71,-611.25 2.7,-915.301 0,-21 3.86,-47.91 0,-65.699 -1.29,-5.961 -9.36,-13.219 -14.4,-18.898 -5.49,-6.192 -11.26,-12.403 -16.2,-18 -11.77,-13.321 -25.73,-24.731 -27.9,-39.602 6.39,-5.738 16.69,-3.602 26.1,-3.602 52.71,0 96.43,-0.898 149.4,-0.898 13.94,0 52.93,-3.641 55.8,4.5 2.58,7.309 -6.94,15.441 -12.6,21.602 -12.22,13.32 -20.7,22.648 -32.4,36 -5.25,6 -13.13,13.597 -14.39,19.796 -3.92,18.942 0,45.704 0,69.301 -0.02,326.16 -1.75,653.971 -1.81,977.401 0,22.58 2.15,45.53 -2.7,67.5 -52.83,3.01 -118.17,2.99 -171,0 z m -1036.8,0 c -5.69,-9.59 5.71,-15.38 10.8,-19.8 13.66,-11.87 21.37,-20.8 35.1,-33.3 6.9,-6.29 15.12,-10.13 17.1,-17.1 2.59,-9.05 0.6,-23.78 0.9,-36 2.03,-84.35 4.65,-173.1 6.3,-253.8 -33.1,28.6 -70.41,65.28 -134.1,54 -51.77,-9.17 -79.13,-48.28 -96.3,-95.4 -34.01,-93.32 -21.61,-235.96 -21.6,-356.399 0.01,-124.711 7.7,-250.59 45,-338.403 19.27,-45.359 46.62,-84.418 97.2,-94.5 54.77,-10.91 91.71,18.731 116.1,46.793 3.1,3.579 5.46,10.571 11.7,10.809 2.36,-18.039 -0.48,-41.281 3.6,-57.602 24.71,-4.789 56.12,-2.699 86.4,-2.699 14.35,0 29.54,0 44.1,0 14.65,0 32.61,-3.308 40.5,4.492 1,8.59 -7.44,14.329 -12.6,19.809 -11.72,12.449 -21.41,23.07 -33.3,36 -5.6,6.09 -13.88,13.16 -15.3,19.801 -1.93,9.027 -0.61,22.097 -0.9,34.199 -1.94,81.27 -5.39,164.68 -5.4,243.898 -0.02,94.543 -5.4,187.812 -5.4,279.002 -0.01,164.19 -9.9,327.2 -9.9,487.8 0,22.76 0.51,46.09 -3.6,68.4 -54.64,2.99 -121.76,3 -176.4,0 z m -3420,0 c -2.24,-10.44 7.49,-15.08 13.5,-19.8 13.39,-10.51 24.6,-20.02 37.8,-30.6 9.6,-7.69 20.74,-13.09 21.6,-26.1 39,0 78,0 117,0 -1.77,12.83 -3.4,27.2 -5.4,40.5 -2.02,13.43 -2.39,27.37 -9,36.9 -56.12,0.91 -120.88,2.68 -175.5,-0.9 z m 7072.2,189 c 13.85,-23.84 -0.81,-50.4 -21.6,-62.1 -13.17,-7.41 -29.72,-8.29 -45.9,-6.3 4.69,-25.6 14.45,-48.06 30.6,-65.7 6.15,-6.72 17.14,-11.46 19.8,-18 2.83,-6.97 1.96,-20.72 2.7,-29.7 2.56,-30.96 5.29,-59.5 7.2,-90 66.85,8.96 126.35,40.58 171.9,72.9 7.32,5.19 15.52,12.11 21.6,13.5 19.17,4.37 35,-8.38 51.31,-17.1 29.06,-15.56 59.29,-26.16 98.09,-29.7 21.41,-1.95 53.31,-3.98 58.5,9.9 10.21,27.31 -26.05,40.81 -34.2,53.1 -5.27,7.94 -10.84,23.12 -10.8,31.5 0.06,10.6 10.81,30.9 18.9,34.2 9.49,3.86 24.77,1.06 35.1,0 22.72,-2.33 63.44,-7.3 63.9,15.3 0.26,12.56 -16.25,20.13 -26.1,27 -24.22,16.9 -37.91,28.6 -61.2,45 -10.13,7.13 -25.78,14.37 -27.9,26.1 -4.13,22.83 15.31,30.73 13.5,57.6 -149.54,8.72 -261.16,-27.94 -365.4,-67.5 z m 245.7,244.8 c -77.52,-5.3 -140.52,-31.73 -189.9,-68.4 -21.15,-15.71 -51.07,-38.98 -63,-66.6 -11.11,-25.71 -28.85,-71.45 0.9,-95.4 85.58,47.43 200.08,84.49 342,72 10.1,-0.89 18.28,-2.6 27,-2.7 7.73,-0.09 14.95,2.4 23.4,4.5 92.84,23.04 182.95,53.02 272.7,85.5 13.2,4.78 27.96,9.99 43.2,16.2 12.09,4.93 36.65,14.54 35.1,26.1 -1.4,10.48 -26.91,14.52 -43.2,16.2 -22.03,2.26 -39.02,0.83 -54,-2.7 -78.92,-18.61 -152.04,-43.1 -228.6,-65.7 -7.92,-2.34 -15.68,-4.03 -23.4,-6.3 -6.89,-2.02 -13.64,-5.41 -20.7,-4.5 0.74,22.7 10.39,44.92 1.8,59.4 -11.64,19.61 -42.82,29.14 -72,32.4 209.1,0 418.19,0 627.3,0 0,-542.69 0,-1085.42 0,-1628.099 -11.4,194.969 -98.3,322.09 -224.1,404.097 -61.57,40.141 -142.26,72.551 -234,79.204 -103.08,7.468 -188.03,-17.793 -258.3,-51.301 -41.3,176.789 -93.76,372.409 -136.8,556.199 -6.35,27.09 -19.12,50.05 -45,53.1 -36.29,4.27 -64.41,-23.42 -80.1,-42.3 -20.69,-24.91 -33,-53.34 -44.1,-85.5 -35.36,-16.11 -78.03,-1.33 -99,18 -36.08,-22.42 -69.74,-47.26 -111.6,-63.9 4.74,-7.42 14.3,-12.19 23.4,-16.2 27.2,-11.98 64.06,-18.07 102.6,-18.9 0.17,-0.73 0.9,-0.9 0.9,-1.8 20.36,-30.34 45.44,-77.18 99,-60.3 21.43,6.75 32.83,31.56 39.6,53.1 4.48,14.24 5.43,27.16 1.8,39.6 -3.32,11.38 -10.66,18.53 -16.2,27.9 4.62,14.37 9.04,31.34 18,48.6 7.68,14.8 24.14,41.47 43.2,27 22.34,-16.95 4.87,-71.55 -3.6,-99 -13.57,-43.95 -23.69,-72.93 -38.7,-102.6 -11.39,0.38 -16.05,-0.25 -23.4,-5.4 -10.94,-7.67 -18.21,-22.1 -27,-25.2 -9.41,-3.32 -22.22,-3.21 -35.1,-4.5 -11.57,-1.16 -24.85,-6.05 -34.2,-5.4 -7.5,0.52 -20.18,10.41 -28.8,15.3 -55.76,31.58 -109.99,63.31 -176.4,86.4 -11.95,4.16 -30.04,5.61 -31.5,15.3 -1.55,10.35 11.56,22.76 18,27 7.11,4.68 17.07,6.44 25.2,9.9 55.15,23.46 108.2,55.99 148.5,95.4 70.43,6.26 133.6,19.42 162.9,68.4 8.47,14.15 20.96,36.95 18,55.8 -1.33,8.49 -6.54,14.64 -9,22.5 -7.4,23.65 -6.31,54.83 -6.3,85.5 0,9.16 -13.75,18.78 -20.7,26.1 -16.81,17.71 -33.4,37.1 -40.5,63.9 -1.44,5.43 -0.28,12.9 -2.7,18 -5.45,11.49 -45.27,23.13 -60.3,27 -67.92,17.47 -166.3,18.13 -234.9,3.6 -94.97,-20.12 -181.36,-53.01 -262.8,-83.7 -84.8,-31.97 -162.07,-69.7 -234,-112.5 -72.85,-43.34 -144.53,-87.5 -206.1,-140.4 39.07,8.7 82.9,15.39 127.8,18.9 47.03,3.68 89.71,-0.65 126.9,-15.3 34.38,-13.55 66.95,-32.16 83.7,-62.1 16.98,-30.37 26.52,-66.32 38.7,-107.1 43.3,16.85 82.81,36.76 118.8,62.1 34.73,24.44 61.13,59.35 93.6,86.4 31.36,26.14 72.38,47.82 102.6,77.4 13.85,13.56 28.58,29.07 45.9,44.1 14.05,12.19 44.4,35.16 63,16.2 -1.41,-17.12 -17.59,-24.77 -28.8,-31.5 -25.23,-15.14 -48.12,-29.67 -68.4,-50.4 -5.03,-5.13 -8.51,-12.22 -13.5,-16.2 -5.33,-4.25 -12.57,-6.85 -18.9,-10.8 -37,-23.1 -72.3,-46.75 -99.9,-78.3 -3.89,-4.45 -10.15,-9.83 -13.5,-16.2 -3.79,-7.19 -4.55,-15.29 -9.9,-19.8 -6.17,-5.2 -20.43,-3.6 -26.1,-9.9 -6.9,-7.67 -12,-28.2 -15.3,-38.7 -12.94,-41.13 6.4,-65.19 30.6,-85.5 29.62,-24.85 72.08,-41.23 111.6,-55.8 81.15,-29.92 171.33,-56.44 263.7,-70.2 7,-1.04 9.83,-1.03 13.5,-4.5 7.39,-6.99 11.39,-21.04 17.1,-31.5 6.73,-12.33 16.58,-24.94 33.3,-27 17.02,-2.1 38.48,3.01 53.1,7.2 17.9,5.14 45.79,13.4 47.7,33.3 1.15,12.07 0.57,26.7 2.7,37.8 10.02,7.12 25.42,8.13 39.6,11.7 13.68,3.45 27.45,7.6 40.5,10.8 1.46,0.25 1.55,-0.85 2.7,-0.9 11.92,-63.21 34.74,-125 45.9,-188.102 0.74,-4.128 1.74,-4.769 0,-8.097 -1.74,-3.321 -11.42,-9.582 -17.1,-14.403 C 9140.93,829.5 8973.23,684.852 8806.5,540 c -4.94,-4.289 -10.46,-9.98 -17.1,-11.699 -3.33,5.679 -14.95,7.84 -16.2,12.597 16.15,55.852 33.02,110.993 50.4,165.602 28.07,2.059 59.55,4.172 88.2,6.301 9.92,0.738 20.33,0.121 27.9,2.699 11.82,4.031 22.84,25.359 12.6,36.898 -4.59,5.172 -18.76,6.481 -26.1,8.102 -21.36,4.699 -34.52,7.559 -55.79,11.699 -7.95,1.551 -22.2,6.211 -27.91,5.403 -13.39,-1.911 -13.36,-24.743 -18.9,-36.903 -3.63,-0.738 -7.96,8.86 -10.8,15.301 -3.66,8.328 -6.01,16.602 -6.3,27 -8.19,7.121 -20.39,6.289 -18.9,23.398 2.48,28.524 25.58,60.801 37.81,82.793 29.28,52.719 58.54,100.418 87.29,153.909 10.4,19.36 35.06,56.89 29.7,90 -1.6,9.94 -13.32,10.08 -26.99,13.5 -62.19,15.53 -123.34,33.91 -177.31,54.9 -31.86,12.4 -63.38,25.66 -90,42.3 -26.6,16.63 -54.22,35.18 -60.3,72 0.16,0.77 -0.35,0.85 -0.9,0.9 -21.35,4.5 -47.83,18.09 -69.3,11.7 -31.35,-9.33 -50.43,-46.83 -57.6,-80.1 34.75,-51.35 62.92,-109.28 94.5,-163.8 41.22,-9.1 96.35,-11.07 137.7,1.8 18.85,5.86 35.83,22.91 58.5,15.3 18.96,-6.37 24.05,-23.47 24.3,-52.2 -15.77,-0.8 -19.99,24.09 -38.7,24.3 -15.97,0.18 -29.64,-25.39 -36.9,-38.7 -9.67,-17.72 -15.65,-36.941 -19.8,-55.809 -9.6,-43.531 -6.66,-96.351 -1.8,-137.691 5.21,-44.391 -42.12,-77.379 -20.7,-117 19.49,-36.039 73.34,-20.75 122.4,-20.699 -14.43,-51.871 -30.99,-101.621 -45.9,-153 -56.76,0.359 -85.42,-27.391 -103.5,-65.699 -14.51,3.488 -34.62,1.378 -46.8,7.199 12,64.058 25.16,142.078 30.6,213.301 0.96,12.609 -0.33,24.57 4.5,34.199 3.84,7.66 10.33,13.777 16.2,22.5 23.09,34.289 12.71,91.789 -1.8,126.89 -15.35,37.137 -35.89,69.219 -53.1,101.707 -36.02,68.022 -67.51,138.792 -106.2,204.302 -19.37,32.8 -39.76,64.85 -64.8,90.9 -24.39,25.39 -67.64,38.23 -72,82.8 1.25,1.28 6.3,-8.88 9,-12.6 10.55,-14.57 26.74,-22.22 42.3,-33.3 19.93,-14.19 37.59,-31.01 53.1,-47.7 7.92,18.32 21.25,37.66 31.5,53.1 6.37,9.59 -1.88,22.09 -7.19,35.1 -26.05,63.7 -57.31,113.16 -127.81,133.2 -42.05,11.95 -91.47,7.5 -138.6,3.6 -46.54,-3.86 -92.91,-9.5 -134.1,-15.3 6.59,-24.28 -1.45,-46.47 -7.2,-68.4 -5.88,-22.38 -10.15,-45.63 -13.5,-69.3 -6.85,-48.28 -17.73,-98.74 -12.6,-151.2 8.64,-88.32 68.47,-124.7 147.6,-142.2 10.4,-2.3 23.13,-2.29 34.2,-6.3 7.43,-2.69 15.7,-12.99 22.5,-19.8 21.3,-21.3 41.73,-42.948 63.9,-62.101 -9.68,-15.519 -20.1,-30.301 -29.7,-45.898 -80.23,48.687 -171.79,87.369 -296.1,80.999 -115.83,-5.941 -206.98,-47.07 -277.2,-100.8 -102.61,-78.52 -185.38,-201.289 -193.5,-373.5 -2.78,-58.922 6.86,-115.859 22.5,-166.5 28.87,-93.488 82.77,-170.051 151.2,-227.699 70.47,-59.3596 152.73,-100.6526 264.6,-113.4026 123.85,-14.10934 227.85,18.6329 306,64.8008 79.72,47.0898 139.47,113.8208 184.5,191.6988 0.2,-27.378 6.34,-44.738 27,-51.296 26.31,-8.352 67.15,-0.114 98.1,-5.403 -1.41,-17.187 -3.45,-33.758 -4.5,-51.301 36.48,-3.418 72.64,-7.168 109.8,-9.898 1.91,16.691 3.73,33.469 4.5,51.301 20.5,2.82 46.53,-8.91 71.1,-5.403 15.47,2.211 29.84,16.723 24.3,34.204 -4.04,12.707 -33.18,15.886 -46.8,20.699 -17.6,6.211 -32.82,12.379 -49.5,17.097 7.59,26.024 15.67,51.532 23.4,77.403 79.38,-22.891 146.04,29.09 137.7,107.097 -0.73,6.852 -3.36,14.731 0,19.801 2.31,3.481 10.27,9.403 16.2,14.403 147.13,123.949 296.13,246.757 441.9,371.699 21.25,18.211 41.73,37.371 64.8,53.097 0.8,-10.66 6.71,-20.808 5.4,-30.597 -74.08,-53.789 -131.57,-126.653 -167.4,-220.5 -17.92,-46.942 -31.01,-103.961 -32.4,-162 -1.49,-61.903 8.49,-118.18 25.2,-168.301 31.88,-95.68 86.83,-170.051 159.3,-228.602 71.94,-58.1167 161.83,-101.15972 279.9,-107.999562 0,-0.296875 0,-0.597657 0,-0.898438 C 6412.36,0 3208.14,0 0,0 c 0,709.801 0,1419.58 0,2129.4 3155.67,0 6307.34,0 9463.5,0" /><path
         id="path16"
         style="fill:#423f40;fill-opacity:1;fill-rule:evenodd;stroke:none"
         d="m 9463.5,2129.4 c 17.1,0 34.2,0 51.3,0 29.18,-3.26 60.36,-12.79 72,-32.4 8.59,-14.48 -1.06,-36.7 -1.8,-59.4 7.06,-0.91 13.81,2.48 20.7,4.5 7.72,2.27 15.48,3.96 23.4,6.3 76.56,22.6 149.68,47.09 228.6,65.7 14.98,3.53 31.97,4.96 54,2.7 16.29,-1.68 41.8,-5.72 43.2,-16.2 1.55,-11.56 -23.01,-21.17 -35.1,-26.1 -15.24,-6.21 -30,-11.42 -43.2,-16.2 -89.75,-32.48 -179.86,-62.46 -272.7,-85.5 -8.45,-2.1 -15.67,-4.59 -23.4,-4.5 -8.72,0.1 -16.9,1.81 -27,2.7 -141.92,12.49 -256.42,-24.57 -342,-72 -29.75,23.95 -12.01,69.69 -0.9,95.4 11.93,27.62 41.85,50.89 63,66.6 49.38,36.67 112.38,63.1 189.9,68.4" /><path
         id="path18"
         style="fill:#423f40;fill-opacity:1;fill-rule:evenodd;stroke:none"
         d="m 9583.2,1952.1 c 1.81,-26.87 -17.63,-34.77 -13.5,-57.6 2.12,-11.73 17.77,-18.97 27.9,-26.1 23.29,-16.4 36.98,-28.1 61.2,-45 9.85,-6.87 26.36,-14.44 26.1,-27 -0.46,-22.6 -41.18,-17.63 -63.9,-15.3 -10.33,1.06 -25.61,3.86 -35.1,0 -8.09,-3.3 -18.84,-23.6 -18.9,-34.2 -0.04,-8.38 5.53,-23.56 10.8,-31.5 8.15,-12.29 44.41,-25.79 34.2,-53.1 -5.19,-13.88 -37.09,-11.85 -58.5,-9.9 -38.8,3.54 -69.03,14.14 -98.09,29.7 -16.31,8.72 -32.14,21.47 -51.31,17.1 -6.08,-1.39 -14.28,-8.31 -21.6,-13.5 -45.55,-32.32 -105.05,-63.94 -171.9,-72.9 -1.91,30.5 -4.64,59.04 -7.2,90 -0.74,8.98 0.13,22.73 -2.7,29.7 -2.66,6.54 -13.65,11.28 -19.8,18 -16.15,17.64 -25.91,40.1 -30.6,65.7 16.18,-1.99 32.73,-1.11 45.9,6.3 20.79,11.7 35.45,38.26 21.6,62.1 104.24,39.56 215.86,76.22 365.4,67.5" /><path
         id="path20"
         style="fill:#423f40;fill-opacity:1;fill-rule:evenodd;stroke:none"
         d="m 8571.6,440.102 c -3.63,-18.18 -7.31,-34.571 -9.9,-57.602 -2.09,-18.52 -5.48,-46.359 2.7,-58.5 3.18,-4.719 15.06,-8.738 22.5,-11.699 16.56,-6.59 29.52,-10.571 43.2,-17.102 7.68,26.821 15.42,53.582 24.3,79.199 -12.97,16.43 -26.24,32.563 -28.8,59.403 -17.42,2.679 -36.58,3.621 -54,6.301 z m -469.8,128.699 c -5.11,-7.621 -14.2,-15.082 -11.7,-24.301 16.55,-3.559 35.62,-4.578 54,-6.301 -4.66,22.942 -12.8,42.403 -26.1,56.699 -5.41,-8.488 -10.48,-17.546 -16.2,-26.097 z m 1422,-166.5 c 27.64,-38.68 74.19,-68.531 137.7,-63.903 75.17,5.473 134.5,68.883 138.6,143.102 3.05,55.148 -19.8,94.172 -49.5,120.602 -24.4,21.707 -60.13,45.128 -108,41.398 -44.74,-3.48 -78.47,-19.352 -101.7,-45.898 9.75,-13.051 18.63,-26.981 27.01,-41.403 21.05,20.949 45.49,37.199 80.99,36.903 56.92,-0.493 97.63,-43.903 100.8,-96.301 3.29,-54.461 -36.37,-103.961 -92.7,-108 -63.52,-4.551 -110.64,39.66 -111.59,99.898 -0.12,6.742 2.47,10.313 0.89,17.992 -1.62,7.938 -12.07,18.489 -17.1,26.11 -6.33,9.59 -11.67,18.16 -18,26.097 -29.72,-51.968 -13.57,-119.988 12.6,-156.597 z m -1541.7,256.5 c -41.73,-3.25 -74.48,-22.992 -96.3,-45.903 -31.07,-32.597 -51.05,-81.777 -39.6,-137.699 9.29,-45.398 38.25,-83.051 80.1,-104.398 48,-24.5 103.62,-20.199 145.8,4.5 38.96,22.82 65.28,56.898 74.7,110.699 -17.28,1.32 -33.93,3.262 -50.4,5.398 -11.36,-49.597 -42.53,-87.296 -100.8,-87.296 -59.86,0 -102.87,46 -102.6,103.5 0.33,68.269 70.57,122.957 142.2,93.597 5.66,-2.32 11.48,-6.828 18.9,-10.801 8.28,14.821 18.3,27.911 27,42.301 -26.41,15.91 -55.17,29.512 -99,26.102 z m 198.9,32.398 c -8.82,-15.48 -18.85,-29.75 -28.8,-44.097 24.42,-31.383 45.94,-65.672 51.3,-116.102 18.73,-1.059 35.85,-3.75 54,-5.398 -6.54,74.16 -35.2,126.187 -76.5,165.597 z M 9389.7,526.5 c -8.29,-59.48 5.65,-113.199 27,-154.809 38.67,-75.3 119.38,-142.543 232.2,-142.191 78.14,0.25 140.29,33.172 184.5,77.398 43.83,43.852 78.02,103.903 77.4,185.403 -0.65,85.308 -36.95,144.898 -81.9,188.097 -44.43,42.692 -106.35,78.231 -197.1,72.903 -65.23,-3.832 -111.3,-30.02 -151.2,-61.199 8.21,-15.18 18.83,-27.973 27,-43.204 27.24,19.704 61.24,41.473 102.6,48.602 46.6,8.031 94.19,-0.91 129.6,-18 63.49,-30.648 118.11,-96.73 117.9,-189 -0.15,-64.93 -26.92,-115.18 -63,-150.301 -36.39,-35.429 -91.36,-62.187 -154.8,-59.398 -64.45,2.828 -110.05,30.39 -145.8,67.5 -35.46,36.808 -60.2,87.687 -55.8,158.39 2.79,44.848 19.14,74.258 37.8,106.207 -10.73,14.172 -19.26,30.532 -30.6,44.102 -28.9,-37.352 -48.27,-76.43 -55.8,-130.5 z m -1404,243 c -110.63,-5.23 -192.88,-75.23 -228.6,-154.801 -18.69,-41.629 -28.93,-105.519 -17.1,-162 20.39,-97.32 93.38,-171.121 183.6,-197.097 50.24,-14.473 113.31,-12.793 163.8,6.296 89.51,33.852 151.27,105.34 168.3,212.403 -17.94,1.258 -34.93,3.469 -52.2,5.398 -7.19,-50.09 -27.4,-87.531 -55.8,-117 -28.31,-29.39 -63.68,-52.73 -110.7,-62.097 -112.22,-22.34 -193.61,42.929 -228.6,109.796 -21.08,40.301 -28.47,96.743 -17.1,144.903 10.45,44.25 34.69,81.41 64.8,108 29.21,25.789 69.87,47.648 120.6,52.199 52.64,4.719 99.29,-10.801 135.9,-35.102 9.44,15.161 20.11,29.09 28.8,45 -41.56,24.903 -88.19,47.293 -155.7,44.102 z m 275.4,41.398 c -14.66,-18.636 -26,-40.597 -40.5,-59.398 55.98,-57.129 100.49,-125.711 106.2,-233.102 23.48,-3.218 48.19,-5.207 72,-8.097 -4.33,141.769 -61.55,230.648 -137.7,300.597 z m 1114.2,-24.296 c -6.48,-5.454 -11.72,-10.34 -17.1,-16.204 -50.95,-55.437 -89.65,-119.957 -105.29,-208.796 -19.74,-112.043 11.81,-216.832 58.49,-288 67.43,-102.801 184.16,-187.0122 353.7,-182.7036 56.85,1.4532 102.58,14.9536 145.8,34.2036 81.9,36.488 144.11,94.789 188.1,171 43.6,75.558 66.7,185.359 39.6,294.296 -23.5,94.801 -74.04,164.133 -141.3,217.801 -64.67,51.61 -153.02,92.762 -272.7,86.403 -51.28,-2.731 -108.16,-18.793 -149.4,-38.704 -8.28,-4 -35.45,-16.136 -38.7,-23.398 -3.93,-8.781 -1.68,-22.352 -2.7,-32.398 -1.18,-11.571 -2.89,-21.774 -3.6,-32.403 5.2,-5.008 7.8,-12.597 12.6,-18 61.04,46.961 141.45,82.961 246.6,69.301 90.57,-11.77 160.48,-54.07 209.7,-112.5 48.92,-58.09 86.4,-136.27 79.2,-240.301 -6.44,-93.097 -48.36,-164.328 -105.3,-216.898 -56.43,-52.102 -133.04,-89.52 -232.2,-87.301 -99.48,2.219 -171.08,41.469 -225.9,96.301 -52.23,52.23 -93.95,127.027 -96.3,225 -2.53,105.219 37.68,173.879 88.2,234 -16.87,16.129 -20.14,45.859 -27,72 -2.43,2.437 -3.5,-1.852 -4.5,-2.699 z M 7979.4,910.801 c -90.5,-4.281 -160.71,-35.039 -218.7,-77.403 -57.73,-42.168 -101.64,-94.789 -131.4,-161.097 -28.92,-64.449 -44.74,-161.192 -26.1,-248.403 16.75,-78.32 53.98,-141.507 100.8,-191.699 46.97,-50.347 110.26,-89.668 181.8,-110.699 77.34,-22.7383 176.98,-17.949 252,9.898 68.3,25.352 125.83,68.543 170.11,122.403 44.37,54 75.59,118.758 87.29,205.199 -23.98,2.121 -46.7,5.5 -71.1,7.199 -11.84,-79.097 -41.84,-138.129 -87.3,-184.508 -44.91,-45.812 -99.65,-82.812 -173.7,-98.089 -84.95,-17.532 -168.09,2.558 -225,34.199 -59.31,32.98 -104.12,79.39 -135,137.699 -32.08,60.57 -46.58,148.879 -28.8,226.801 16.11,70.59 54.54,128.629 101.7,171 45.95,41.289 108.81,75.429 189,82.801 85.79,7.886 158.68,-16.641 215.1,-54 12.35,21.257 26.44,40.769 39.6,61.199 -63.88,38.199 -135.53,72.449 -240.3,67.5 z m 358.2,18 c -8.44,-13.461 -17.35,-26.449 -26.1,-39.61 55.22,-49.171 102.27,-106.519 135,-178.191 4.94,20.672 4.82,40.031 9,58.5 3.32,14.699 21.95,23.422 19.8,41.398 -47.88,37.321 -93.34,77.063 -137.7,117.903 z m 874.8,291.599 c 20.67,5.12 42.19,9.4 61.2,16.2 -7.25,26.65 -11.55,56.24 -18.9,82.8 -11.99,-35.11 -26.05,-68.15 -42.3,-99 z m 929.7,-719.099 c 0,-5.699 0,-11.403 0,-17.11 -6.5,-148.722 -62.2,-256.562 -140.4,-334.793 C 9923.51,71.2188 9821.77,10.0195 9676.8,0 c -18.89,0 -37.8,0 -56.7,0 0,0.300781 0,0.601563 0,0.898438 C 9502.03,7.73828 9412.14,50.7813 9340.2,108.898 9267.73,167.449 9212.78,241.82 9180.9,337.5 c -16.71,50.121 -26.69,106.398 -25.2,168.301 1.39,58.039 14.48,115.058 32.4,162 35.83,93.847 93.32,166.711 167.4,220.5 1.31,9.789 -4.6,19.937 -5.4,30.597 -23.07,-15.726 -43.55,-34.886 -64.8,-53.097 -145.77,-124.942 -294.77,-247.75 -441.9,-371.699 -5.93,-5 -13.89,-10.922 -16.2,-14.403 -3.36,-5.07 -0.73,-12.949 0,-19.801 8.34,-78.007 -58.32,-129.988 -137.7,-107.097 -7.73,-25.871 -15.81,-51.379 -23.4,-77.403 16.68,-4.718 31.9,-10.886 49.5,-17.097 13.62,-4.813 42.76,-7.992 46.8,-20.699 5.54,-17.481 -8.83,-31.993 -24.3,-34.204 -24.57,-3.507 -50.6,8.223 -71.1,5.403 -0.77,-17.832 -2.59,-34.61 -4.5,-51.301 -37.16,2.73 -73.32,6.48 -109.8,9.898 1.05,17.543 3.09,34.114 4.5,51.301 -30.95,5.289 -71.79,-2.949 -98.1,5.403 -20.66,6.558 -26.8,23.918 -27,51.296 C 8387.07,197.52 8327.32,130.789 8247.6,83.6992 8169.45,37.5313 8065.45,4.78906 7941.6,18.8984 7829.73,31.6484 7747.47,72.9414 7677,132.301 7608.57,189.949 7554.67,266.512 7525.8,360 c -15.64,50.641 -25.28,107.578 -22.5,166.5 8.12,172.211 90.89,294.98 193.5,373.5 70.22,53.73 161.37,94.859 277.2,100.8 124.31,6.37 215.87,-32.312 296.1,-80.999 9.6,15.597 20.02,30.379 29.7,45.898 -22.17,19.153 -42.6,40.801 -63.9,62.101 -6.8,6.81 -15.07,17.11 -22.5,19.8 -11.07,4.01 -23.8,4 -34.2,6.3 -79.13,17.5 -138.96,53.88 -147.6,142.2 -5.13,52.46 5.75,102.92 12.6,151.2 3.35,23.67 7.62,46.92 13.5,69.3 5.75,21.93 13.79,44.12 7.2,68.4 41.19,5.8 87.56,11.44 134.1,15.3 47.13,3.9 96.55,8.35 138.6,-3.6 70.5,-20.04 101.76,-69.5 127.81,-133.2 5.31,-13.01 13.56,-25.51 7.19,-35.1 -10.25,-15.44 -23.58,-34.78 -31.5,-53.1 -15.51,16.69 -33.17,33.51 -53.1,47.7 -15.56,11.08 -31.75,18.73 -42.3,33.3 -2.7,3.72 -7.75,13.88 -9,12.6 4.36,-44.57 47.61,-57.41 72,-82.8 25.04,-26.05 45.43,-58.1 64.8,-90.9 38.69,-65.51 70.18,-136.28 106.2,-204.302 17.21,-32.488 37.75,-64.57 53.1,-101.707 14.51,-35.101 24.89,-92.601 1.8,-126.89 -5.87,-8.723 -12.36,-14.84 -16.2,-22.5 -4.83,-9.629 -3.54,-21.59 -4.5,-34.199 -5.44,-71.223 -18.6,-149.243 -30.6,-213.301 12.18,-5.821 32.29,-3.711 46.8,-7.199 18.08,38.308 46.74,66.058 103.5,65.699 14.91,51.379 31.47,101.129 45.9,153 -49.06,-0.051 -102.91,-15.34 -122.4,20.699 -21.42,39.621 25.91,72.609 20.7,117 -4.86,41.34 -7.8,94.16 1.8,137.691 4.15,18.868 10.13,38.089 19.8,55.809 7.26,13.31 20.93,38.88 36.9,38.7 18.71,-0.21 22.93,-25.1 38.7,-24.3 -0.25,28.73 -5.34,45.83 -24.3,52.2 -22.67,7.61 -39.65,-9.44 -58.5,-15.3 -41.35,-12.87 -96.48,-10.9 -137.7,-1.8 -31.58,54.52 -59.75,112.45 -94.5,163.8 7.17,33.27 26.25,70.77 57.6,80.1 21.47,6.39 47.95,-7.2 69.3,-11.7 0.55,-0.05 1.06,-0.13 0.9,-0.9 6.08,-36.82 33.7,-55.37 60.3,-72 26.62,-16.64 58.14,-29.9 90,-42.3 53.97,-20.99 115.12,-39.37 177.31,-54.9 13.67,-3.42 25.39,-3.56 26.99,-13.5 5.36,-33.11 -19.3,-70.64 -29.7,-90 -28.75,-53.491 -58.01,-101.19 -87.29,-153.909 -12.23,-21.992 -35.33,-54.269 -37.81,-82.793 -1.49,-17.109 10.71,-16.277 18.9,-23.398 0.29,-10.398 2.64,-18.672 6.3,-27 2.84,-6.441 7.17,-16.039 10.8,-15.301 5.54,12.16 5.51,34.992 18.9,36.903 5.71,0.808 19.96,-3.852 27.91,-5.403 21.27,-4.14 34.43,-7 55.79,-11.699 7.34,-1.621 21.51,-2.93 26.1,-8.102 10.24,-11.539 -0.78,-32.867 -12.6,-36.898 -7.57,-2.578 -17.98,-1.961 -27.9,-2.699 -28.65,-2.129 -60.13,-4.242 -88.2,-6.301 -17.38,-54.609 -34.25,-109.75 -50.4,-165.602 1.25,-4.757 12.87,-6.918 16.2,-12.597 6.64,1.719 12.16,7.41 17.1,11.699 166.73,144.852 334.43,289.5 503.1,432.898 5.68,4.821 15.36,11.082 17.1,14.403 1.74,3.328 0.74,3.969 0,8.097 -11.16,63.102 -33.98,124.892 -45.9,188.102 -1.15,0.05 -1.24,1.15 -2.7,0.9 -13.05,-3.2 -26.82,-7.35 -40.5,-10.8 -14.18,-3.57 -29.58,-4.58 -39.6,-11.7 -2.13,-11.1 -1.55,-25.73 -2.7,-37.8 -1.91,-19.9 -29.8,-28.16 -47.7,-33.3 -14.62,-4.19 -36.08,-9.3 -53.1,-7.2 -16.72,2.06 -26.57,14.67 -33.3,27 -5.71,10.46 -9.71,24.51 -17.1,31.5 -3.67,3.47 -6.5,3.46 -13.5,4.5 -92.37,13.76 -182.55,40.28 -263.7,70.2 -39.52,14.57 -81.98,30.95 -111.6,55.8 -24.2,20.31 -43.54,44.37 -30.6,85.5 3.3,10.5 8.4,31.03 15.3,38.7 5.67,6.3 19.93,4.7 26.1,9.9 5.35,4.51 6.11,12.61 9.9,19.8 3.35,6.37 9.61,11.75 13.5,16.2 27.6,31.55 62.9,55.2 99.9,78.3 6.33,3.95 13.57,6.55 18.9,10.8 4.99,3.98 8.47,11.07 13.5,16.2 20.28,20.73 43.17,35.26 68.4,50.4 11.21,6.73 27.39,14.38 28.8,31.5 -18.6,18.96 -48.95,-4.01 -63,-16.2 -17.32,-15.03 -32.05,-30.54 -45.9,-44.1 -30.22,-29.58 -71.24,-51.26 -102.6,-77.4 -32.47,-27.05 -58.87,-61.96 -93.6,-86.4 -35.99,-25.34 -75.5,-45.25 -118.8,-62.1 -12.18,40.78 -21.72,76.73 -38.7,107.1 -16.75,29.94 -49.32,48.55 -83.7,62.1 -37.19,14.65 -79.87,18.98 -126.9,15.3 -44.9,-3.51 -88.73,-10.2 -127.8,-18.9 61.57,52.9 133.25,97.06 206.1,140.4 71.93,42.8 149.2,80.53 234,112.5 81.44,30.69 167.83,63.58 262.8,83.7 68.6,14.53 166.98,13.87 234.9,-3.6 15.03,-3.87 54.85,-15.51 60.3,-27 2.42,-5.1 1.26,-12.57 2.7,-18 7.1,-26.8 23.69,-46.19 40.5,-63.9 6.95,-7.32 20.7,-16.94 20.7,-26.1 -0.01,-30.67 -1.1,-61.85 6.3,-85.5 2.46,-7.86 7.67,-14.01 9,-22.5 2.96,-18.85 -9.53,-41.65 -18,-55.8 -29.3,-48.98 -92.47,-62.14 -162.9,-68.4 -40.3,-39.41 -93.35,-71.94 -148.5,-95.4 -8.13,-3.46 -18.09,-5.22 -25.2,-9.9 -6.44,-4.24 -19.55,-16.65 -18,-27 1.46,-9.69 19.55,-11.14 31.5,-15.3 66.41,-23.09 120.64,-54.82 176.4,-86.4 8.62,-4.89 21.3,-14.78 28.8,-15.3 9.35,-0.65 22.63,4.24 34.2,5.4 12.88,1.29 25.69,1.18 35.1,4.5 8.79,3.1 16.06,17.53 27,25.2 7.35,5.15 12.01,5.78 23.4,5.4 15.01,29.67 25.13,58.65 38.7,102.6 8.47,27.45 25.94,82.05 3.6,99 -19.06,14.47 -35.52,-12.2 -43.2,-27 -8.96,-17.26 -13.38,-34.23 -18,-48.6 5.54,-9.37 12.88,-16.52 16.2,-27.9 3.63,-12.44 2.68,-25.36 -1.8,-39.6 -6.77,-21.54 -18.17,-46.35 -39.6,-53.1 -53.56,-16.88 -78.64,29.96 -99,60.3 0,0.9 -0.73,1.07 -0.9,1.8 -38.54,0.83 -75.4,6.92 -102.6,18.9 -9.1,4.01 -18.66,8.78 -23.4,16.2 41.86,16.64 75.52,41.48 111.6,63.9 20.97,-19.33 63.64,-34.11 99,-18 11.1,32.16 23.41,60.59 44.1,85.5 15.69,18.88 43.81,46.57 80.1,42.3 25.88,-3.05 38.65,-26.01 45,-53.1 43.04,-183.79 95.5,-379.41 136.8,-556.199 70.27,33.508 155.22,58.769 258.3,51.301 91.74,-6.653 172.43,-39.063 234,-79.204 125.8,-82.007 212.7,-209.128 224.1,-404.097" /><path
         id="path22"
         style="fill:#423f40;fill-opacity:1;fill-rule:evenodd;stroke:none"
         d="m 2321.1,1696.5 c 6.61,-9.53 6.98,-23.47 9,-36.9 2,-13.3 3.63,-27.67 5.4,-40.5 -39,0 -78,0 -117,0 -0.86,13.01 -12,18.41 -21.6,26.1 -13.2,10.58 -24.41,20.09 -37.8,30.6 -6.01,4.72 -15.74,9.36 -13.5,19.8 54.62,3.58 119.38,1.81 175.5,0.9" /><path
         id="path24"
         style="fill:#423f40;fill-opacity:1;fill-rule:evenodd;stroke:none"
         d="m 5536.8,1300.5 c -27.79,-40.76 -29.71,-113.82 -29.7,-179.1 0,-64.1 5.4,-134.201 5.4,-204.298 0,-99.243 -2.15,-208.922 25.2,-288 7.98,-23.071 24.62,-55.993 48.6,-56.704 19.67,-0.578 36.27,23.454 45.9,43.204 21.42,43.968 17.67,96.527 16.2,157.5 -2.09,86.699 -6.3,171.918 -6.3,263.698 -0.01,60.8 -0.25,121.19 -4.5,175.5 -1.99,25.37 -9.14,48.53 -21.6,68.4 -10.54,16.8 -31.99,42.84 -50.4,41.4 -14.61,-1.14 -22.64,-12.55 -28.8,-21.6 z m 205.2,395.1 c 4.11,-22.31 3.6,-45.64 3.6,-68.4 0,-160.6 9.89,-323.61 9.9,-487.8 0,-91.19 5.38,-184.459 5.4,-279.002 0.01,-79.218 3.46,-162.628 5.4,-243.898 0.29,-12.102 -1.03,-25.172 0.9,-34.199 1.42,-6.641 9.7,-13.711 15.3,-19.801 11.89,-12.93 21.58,-23.551 33.3,-36 5.16,-5.48 13.6,-11.219 12.6,-19.809 -7.89,-7.8 -25.85,-4.492 -40.5,-4.492 -14.56,0 -29.75,0 -44.1,0 -30.28,0 -61.69,-2.09 -86.4,2.699 -4.08,16.321 -1.24,39.563 -3.6,57.602 -6.24,-0.238 -8.6,-7.23 -11.7,-10.809 -24.39,-28.062 -61.33,-57.703 -116.1,-46.793 -50.58,10.082 -77.93,49.141 -97.2,94.5 -37.3,87.813 -44.99,213.692 -45,338.403 -0.01,120.439 -12.41,263.079 21.6,356.399 17.17,47.12 44.53,86.23 96.3,95.4 63.69,11.28 101,-25.4 134.1,-54 -1.65,80.7 -4.27,169.45 -6.3,253.8 -0.3,12.22 1.69,26.95 -0.9,36 -1.98,6.97 -10.2,10.81 -17.1,17.1 -13.73,12.5 -21.44,21.43 -35.1,33.3 -5.09,4.42 -16.49,10.21 -10.8,19.8 54.64,3 121.76,2.99 176.4,0" /><path
         id="path26"
         style="fill:#423f40;fill-opacity:1;fill-rule:evenodd;stroke:none"
         d="m 6773.4,1695.6 c 4.85,-21.97 2.7,-44.92 2.7,-67.5 0.06,-323.43 1.79,-651.241 1.81,-977.401 0,-23.597 -3.92,-50.359 0,-69.301 1.26,-6.199 9.14,-13.796 14.39,-19.796 11.7,-13.352 20.18,-22.68 32.4,-36 5.66,-6.161 15.18,-14.293 12.6,-21.602 -2.87,-8.141 -41.86,-4.5 -55.8,-4.5 -52.97,0 -96.69,0.898 -149.4,0.898 -9.41,0 -19.71,-2.136 -26.1,3.602 2.17,14.871 16.13,26.281 27.9,39.602 4.94,5.597 10.71,11.808 16.2,18 5.04,5.679 13.11,12.937 14.4,18.898 3.86,17.789 0,44.699 0,65.699 0.01,304.051 -2.72,607.211 -2.7,915.301 0,22.66 3.26,48.74 -0.9,63.9 -3.1,11.29 -23.49,25.92 -32.4,34.2 -5.31,4.94 -11.43,10.74 -17.1,16.2 -4.96,4.78 -14.2,11.15 -9,19.8 52.83,2.99 118.17,3.01 171,0" /><path
         id="path28"
         style="fill:#423f40;fill-opacity:1;fill-rule:evenodd;stroke:none"
         d="m 7627.5,1431.9 c -1.99,-41.97 -1.88,-98.24 0,-143.1 0.85,-20.44 2.7,-54.78 16.2,-56.7 21.57,-3.06 26.35,28.04 27,51.3 1.52,54.84 0.58,100.62 0,156.6 -0.25,23.2 -7.84,56.31 -27.9,51.3 -15.45,-3.86 -14.5,-42.69 -15.3,-59.4 z m 81.9,192.6 c 1.62,-106.36 0.92,-227.85 0.9,-340.2 0,-16.7 -3.12,-35.63 0,-48.6 2.82,-11.69 18.89,-15.55 19.8,-27.9 -17.75,-1.51 -41.64,-1.47 -59.4,0 0,6.6 0,13.2 0,19.8 -13.56,-19.47 -48.52,-30.05 -65.7,-8.1 -11.99,15.31 -16.16,43.66 -18.9,70.2 -5.35,51.74 -7.05,116.71 1.81,167.4 4.53,25.94 12.64,50.95 30.59,57.6 21.87,8.1 40.91,-4.65 52.2,-17.1 0,15.81 0,32.21 0,49.5 0,16.4 3.27,36.01 0,49.5 -3.21,13.24 -23.03,15.37 -19.8,27.9 19.51,0 39,0 58.5,0" /><path
         id="path30"
         style="fill:#423f40;fill-opacity:1;fill-rule:evenodd;stroke:none"
         d="m 7182.91,1604.7 c 4.83,-29.7 2.69,-67.57 2.69,-102.6 0,-15.44 0,-35.07 0,-52.2 0,-11.83 -3.36,-43.44 2.7,-49.5 7.14,-7.14 47.19,-2.7 63,-2.7 55.17,0 108.15,0 163.8,0 9.75,0 21.69,2.65 28.8,-3.6 2.42,-25.66 -35.12,-26.38 -54.9,-29.7 -50.44,-8.47 -98.89,-13.6 -145.8,-25.2 -22.62,-5.59 -45.44,-11.57 -57.6,-27.9 0,-192.34 0,-410.671 0,-610.198 0,-39.204 -5.96,-87.18 8.1,-112.5 10.9,-19.653 33.31,-25.211 54,-10.801 6.48,4.508 13.68,10.34 18.9,16.199 4.96,5.57 8.91,16.621 18.9,13.5 5.54,-9.629 -0.82,-19.789 -3.6,-27 -9.22,-23.859 -23.61,-47.23 -43.2,-62.102 -27.26,-20.687 -77.17,-26.957 -112.5,-10.796 -48.46,22.168 -54.01,91.636 -54,163.796 0.02,201.903 -0.02,394.612 0,596.702 0,19.27 2.64,40.59 -0.9,53.1 -3.52,12.43 -19.56,21.35 -29.7,31.5 -3.61,3.6 -29.72,23.61 -28.8,31.5 1.1,9.4 25.28,9.74 35.11,13.5 33.56,12.87 48.11,53.54 56.69,96.3 4.15,20.67 9,53.29 9,85.5 0,32.14 10.1,27 40.5,27 11.29,0 22.27,1.23 28.81,-1.8" /><path
         id="path32"
         style="fill:#423f40;fill-opacity:1;fill-rule:evenodd;stroke:none"
         d="m 2340,1588.5 c 3.24,-21.06 6.51,-42.09 9,-63.9 -39,0 -78,0 -117,0 -2.42,20.98 -8.04,43.56 -8.1,63.9 38.7,0 77.4,0 116.1,0" /><path
         id="path34"
         style="fill:#423f40;fill-opacity:1;fill-rule:evenodd;stroke:none"
         d="m 7808.4,1492.2 c -27.24,-3.04 -13.62,-72.08 -17.1,-99.9 13.5,0 27,0 40.5,0 -2.1,30.3 9.17,103.54 -23.4,99.9 z m 61.2,-120.6 c -24.01,-2.09 -51.89,-0.3 -77.4,-0.9 -0.93,-24.88 -2.2,-53.85 0,-81 2.4,-29.66 10.4,-68.3 46.8,-55.8 6.56,2.25 12.58,7.47 17.1,12.6 4.21,4.77 6.44,13.84 14.4,14.4 -5.15,-27.74 -18.05,-51.82 -47.7,-54 -19.47,-1.43 -36.24,6.18 -46.8,18.9 -21.97,26.47 -28.8,82.83 -28.8,141.3 0,67.2 6.13,134.33 52.2,148.5 9.66,2.97 28,0.41 36.01,-3.6 36.76,-18.43 38.94,-86.55 34.19,-140.4" /><path
         id="path36"
         style="fill:#423f40;fill-opacity:1;fill-rule:evenodd;stroke:none"
         d="m 2353.5,1494 c 3.2,-20.8 5.66,-42.34 9,-63 -39.3,0 -78.6,0 -117.9,0 -0.96,21.84 -7.55,42.84 -7.2,63 38.7,0 77.4,0 116.1,0" /><path
         id="path38"
         style="fill:#ffffff;fill-opacity:0;fill-rule:evenodd;stroke:none"
         d="m 7642.8,1491.3 c 20.06,5.01 27.65,-28.1 27.9,-51.3 0.58,-55.98 1.52,-101.76 0,-156.6 -0.65,-23.26 -5.43,-54.36 -27,-51.3 -13.5,1.92 -15.35,36.26 -16.2,56.7 -1.88,44.86 -1.99,101.13 0,143.1 0.8,16.71 -0.15,55.54 15.3,59.4" /><path
         id="path40"
         style="fill:#ffffff;fill-opacity:0;fill-rule:evenodd;stroke:none"
         d="m 7831.8,1392.3 c -13.5,0 -27,0 -40.5,0 3.48,27.82 -10.14,96.86 17.1,99.9 32.57,3.64 21.3,-69.6 23.4,-99.9" /><path
         id="path42"
         style="fill:#423f40;fill-opacity:1;fill-rule:evenodd;stroke:none"
         d="m 486.898,1400.4 c 7.899,-13.41 6.711,-35.89 11.7,-52.2 7.129,3.53 11.656,10.55 17.101,16.2 16.102,16.71 36.496,33.3 67.5,36 70.324,6.14 119.727,-24.52 144.004,-63.9 -93.82,0 -199.683,0 -297.902,0 -13.852,0 -30.793,-2.53 -42.297,0 -9.461,2.08 -29.91,21.84 -37.805,27.9 -12.383,9.52 -28.082,18.21 -30.601,33.3 0.711,3.75 4.879,4.25 8.101,4.5 22.055,1.71 51.617,-0.9 80.102,-0.9 28.472,0 56.672,0.72 80.097,-0.9" /><path
         id="path44"
         style="fill:#423f40;fill-opacity:1;fill-rule:evenodd;stroke:none"
         d="m 1331.1,1336.5 c -85.2,0 -170.4,0 -255.6,0 -2.1,2.9 4.74,8.65 8.1,11.7 25.28,22.96 63.96,51.6 109.8,52.2 31.43,0.42 58.64,-8.1 81.9,-19.8 22.64,-11.38 43.41,-25.59 55.8,-44.1" /><path
         id="path46"
         style="fill:#423f40;fill-opacity:1;fill-rule:evenodd;stroke:none"
         d="m 2367,1400.4 c 1.6,-19.99 5.2,-38 7.2,-57.6 15.3,12.39 26.64,28.23 44.1,38.7 61.83,37.1 164.16,5.24 188.1,-45 -116.1,0 -232.2,0 -348.3,0 -2.22,21.18 -7,44.59 -8.1,63.9 39,0 78,0 117,0" /><path
         id="path48"
         style="fill:#423f40;fill-opacity:1;fill-rule:evenodd;stroke:none"
         d="m 1953,1336.5 c -73.2,0 -146.4,0 -219.6,0 -0.63,4.16 3.08,8.56 5.4,11.7 19.27,26.05 51.07,47.27 93.6,50.4 59.56,4.38 97.16,-29.89 120.6,-62.1" /><path
         id="path50"
         style="fill:#423f40;fill-opacity:1;fill-rule:evenodd;stroke:none"
         d="m 3079.8,1318.5 c -28.86,-30.69 -25.05,-119.93 -20.7,-175.5 4.73,-60.36 14.49,-118.88 18.9,-183.602 4.66,-68.386 9.96,-127.918 18,-184.5 8.4,-59.148 18.56,-116.359 43.2,-159.296 9.94,-17.321 27.48,-38.461 49.5,-36.903 16.03,1.129 28.14,17.321 35.1,29.699 26.94,47.903 12.45,129.383 5.4,190.793 -11.48,100.02 -22.5,195.168 -32.4,297.909 -7.03,72.97 -9.67,130.01 -39.6,180.9 -11.86,20.17 -36.44,55.05 -62.1,49.5 -6.61,-1.43 -11.71,-5.18 -15.3,-9 z m 102.6,18 c 21.43,14.71 46.72,30.51 71.1,47.7 7.47,5.27 16.27,15.87 26.1,10.8 6.3,-3.25 6.63,-30.11 8.1,-45 10.95,-110.8 23.68,-227.38 34.2,-336.6 12.4,-128.65 28.74,-255.361 39.6,-383.4 11.26,-132.738 15.19,-287.41 -80.1,-331.199 -55,-25.281 -124.68,-3.211 -164.7,25.199 -29.41,20.879 -56.51,51.301 -74.7,84.602 -5.68,10.398 -13.78,24.859 -8.1,38.699 16.41,-1.641 25.04,-19.871 36,-30.61 11.09,-10.832 23.9,-21.671 37.8,-30.589 24.93,-16.012 68.41,-34.801 107.1,-21.602 60.78,20.73 48.41,132.82 40.5,205.199 -7.75,-6.621 -13.23,-15.578 -19.8,-23.398 -19.42,-23.11 -49.71,-41.16 -90,-37.801 -50.36,4.191 -81.51,33.488 -104.4,68.398 -66.55,101.481 -79.81,265.172 -95.4,423 -5.13,51.972 -11.92,104.962 -14.4,158.402 -5.21,112.07 17.48,229.4 110.7,237.6 68.9,6.06 105.09,-29.09 140.4,-59.4" /><path
         id="path52"
         style="fill:#423f40;fill-opacity:1;fill-rule:evenodd;stroke:none"
         d="m 3833.1,1190.7 c -4.57,56.26 -16.4,118.32 -56.7,133.2 -47.04,17.37 -65.37,-27.4 -67.5,-65.7 -4.11,-74.06 13.51,-148.35 14.4,-216 40.5,0 81,0 121.5,0 -4.4,44.19 -7.57,97.8 -11.7,148.5 z M 3729.6,981 c 11.96,-112.539 9.14,-238.871 47.7,-324.898 18.33,-40.911 46.99,-84.661 107.1,-78.301 39.84,4.211 61.41,31.07 80.1,60.301 6.29,9.839 12.44,26.597 22.5,23.398 10.44,-3.32 -2.98,-45.461 -6.3,-54.898 -17.1,-48.582 -53.06,-95.204 -110.7,-99.911 -107.24,-8.75 -163.45,63.348 -196.2,133.207 -35.77,76.293 -53.98,168.114 -65.7,263.704 -11.36,92.57 -22.51,209.038 -7.2,305.998 14.19,89.85 49.97,178.29 146.7,185.4 99.08,7.29 149.08,-65.46 177.3,-138.6 14.02,-36.33 24.7,-79.35 29.7,-128.7 3.62,-35.77 5.04,-71.57 8.1,-110.7 0.82,-10.51 3.72,-27.641 -1.8,-33.301 -6.72,-6.898 -40.2,-3.91 -55.8,-3.597 -59.05,1.168 -114.94,1 -175.5,0.898" /><path
         id="path54"
         style="fill:#423f40;fill-opacity:1;fill-rule:evenodd;stroke:none"
         d="m 4334.4,1331.1 c 9.6,4.52 14.28,15.36 21.6,23.4 19.07,20.94 53.2,52.04 95.4,33.3 34.7,-15.41 57.37,-56.4 68.4,-98.1 3.61,-13.63 9.68,-31.52 0.9,-45 -17.54,-0.07 -18.67,16.74 -25.2,27 -17.3,27.21 -47.68,52.24 -90,46.8 -7.33,-0.94 -16.21,-5.09 -22.5,-9.9 -37.59,-28.76 -41.61,-93.92 -36.9,-161.1 12.39,-176.719 21.84,-343.961 34.2,-518.398 1.09,-15.43 0.95,-35.704 4.5,-45 4.39,-11.532 24.87,-25.762 35.1,-36 5.14,-5.141 11.34,-10.172 18.9,-17.102 5.12,-4.691 16.06,-14.078 13.5,-21.602 -2.81,-8.25 -42.7,-4.5 -56.7,-4.5 -53.98,0 -99.39,0.903 -152.1,0.903 -9.47,0 -20.2,-2.321 -27,3.597 -2.28,9.774 5.58,15.942 10.8,22.5 9.75,12.274 17.61,21.981 28.8,36 4.89,6.133 12.4,12.711 13.5,18.903 1.92,10.789 -2.37,30.59 -3.6,45.898 -17.18,213.301 -28.24,427.741 -45,644.401 -1.21,15.73 0.14,34.13 -3.6,45 -2.44,7.1 -10.96,10.96 -18,17.1 -6.28,5.48 -12.81,11.79 -18,16.2 -12.48,10.62 -31.18,20.1 -27.9,36.9 29.73,3.16 92.51,1.8 135,1.8 11.86,0 35.32,2.5 40.5,-2.7 5.72,-5.74 3.08,-22.33 3.6,-29.7 0.82,-11.7 1.93,-19.61 1.8,-30.6" /><path
         id="path56"
         style="fill:#423f40;fill-opacity:1;fill-rule:evenodd;stroke:none"
         d="m 4869,853.199 c -1.7,-53.859 5.27,-106.09 11.7,-155.699 5.86,-45.262 11.07,-110.141 45.9,-121.5 22.99,-7.5 40.48,11.941 49.5,25.199 19.95,29.289 19.19,63.352 17.1,108.903 -5.74,125.339 -11.72,254.168 -17.1,377.998 -0.6,0 -1.2,0 -1.8,0 -62.46,-46.16 -101.75,-121.85 -105.3,-234.901 z m 145.8,-288 c -30.65,-18.988 -53.76,-49.469 -90,-59.398 -39.44,-10.801 -83.78,15.89 -102.6,36 -22.32,23.871 -35.19,51.34 -45.9,83.699 -19.66,59.422 -33.65,149.539 -22.5,229.5 17.85,128 97.43,207.42 180.9,272.7 12.36,9.66 28.04,21.11 32.4,35.1 10.17,32.65 4.98,111.58 -9,135.9 -23.61,41.09 -95.87,22.72 -133.2,6.3 -17.46,-7.68 -32.93,-15.5 -45.9,-24.3 -13.51,-9.17 -22.46,-25.53 -42.3,-25.2 -5.69,19.6 11.58,35.56 22.5,48.6 31.19,37.22 83.67,82.97 143.1,88.2 85.15,7.49 138.11,-43.88 163.8,-98.1 15.51,-32.72 20.93,-66.89 22.5,-108.9 6.21,-166.21 12.76,-334.312 20.7,-502.198 1.63,-34.582 -4.02,-103.161 21.6,-108.911 11.5,-2.562 27.5,6.321 34.2,11.707 4.27,3.43 17.19,23.661 24.3,21.602 6.99,-2.031 3.32,-19.539 0.9,-28.801 -7.05,-27.027 -23.62,-52 -43.2,-64.801 -52.12,-34.089 -105.08,23.84 -132.3,51.301" /><path
         id="path58"
         style="fill:#423f40;fill-opacity:1;fill-rule:evenodd;stroke:none"
         d="m 6276.6,1187.1 c 0.01,49.78 -6.83,100.01 -32.4,122.4 -7.27,6.37 -19.89,11.65 -30.6,11.7 -53.74,0.25 -56.69,-71.4 -56.7,-127.8 -0.01,-55.88 1.22,-108.9 0.9,-159.3 40.76,0.56 79.67,-0.74 119.7,-0.9 -0.18,48.48 -0.9,100.76 -0.9,153.9 z M 6158.7,972 c 3.3,-73.66 -2.24,-150.66 3.6,-223.199 5.44,-67.641 19.48,-136.25 63,-164.699 22.77,-14.903 59.02,-17.852 85.5,-5.403 25.23,11.86 43.78,35.731 59.4,58.5 4.47,6.52 9.41,19.5 20.7,16.199 5.72,-5.558 1.56,-14.328 0,-19.796 -18.44,-65.024 -60.26,-130.692 -141.3,-132.301 -94.44,-1.871 -141.78,59.199 -171,126.898 -39.23,90.93 -50.63,214.742 -48.6,348.301 0.98,64.77 2.97,129.36 11.7,187.2 16.47,109.12 57.9,222.41 173.71,226.8 90.09,3.42 134.57,-68.44 156.59,-142.2 16.76,-56.14 19.81,-125.01 19.8,-204.3 0,-14.4 4.76,-61.691 -3.6,-69.301 -7.55,-6.871 -42.29,-2.699 -55.8,-2.699 -59.02,0 -114.97,0 -173.7,0" /><path
         id="path60"
         style="fill:#ffffff;fill-opacity:0;fill-rule:evenodd;stroke:none"
         d="m 3095.1,1327.5 c 25.66,5.55 50.24,-29.33 62.1,-49.5 29.93,-50.89 32.57,-107.93 39.6,-180.9 9.9,-102.741 20.92,-197.889 32.4,-297.909 7.05,-61.41 21.54,-142.89 -5.4,-190.793 -6.96,-12.378 -19.07,-28.57 -35.1,-29.699 -22.02,-1.558 -39.56,19.582 -49.5,36.903 -24.64,42.937 -34.8,100.148 -43.2,159.296 -8.04,56.582 -13.34,116.114 -18,184.5 -4.41,64.722 -14.17,123.242 -18.9,183.602 -4.35,55.57 -8.16,144.81 20.7,175.5 3.59,3.82 8.69,7.57 15.3,9" /><path
         id="path62"
         style="fill:#ffffff;fill-opacity:0;fill-rule:evenodd;stroke:none"
         d="m 3844.8,1042.2 c -40.5,0 -81,0 -121.5,0 -0.89,67.65 -18.51,141.94 -14.4,216 2.13,38.3 20.46,83.07 67.5,65.7 40.3,-14.88 52.13,-76.94 56.7,-133.2 4.13,-50.7 7.3,-104.31 11.7,-148.5" /><path
         id="path64"
         style="fill:#ffffff;fill-opacity:0;fill-rule:evenodd;stroke:none"
         d="m 5565.6,1322.1 c 18.41,1.44 39.86,-24.6 50.4,-41.4 12.46,-19.87 19.61,-43.03 21.6,-68.4 4.25,-54.31 4.49,-114.7 4.5,-175.5 0,-91.78 4.21,-176.999 6.3,-263.698 1.47,-60.973 5.22,-113.532 -16.2,-157.5 -9.63,-19.75 -26.23,-43.782 -45.9,-43.204 -23.98,0.711 -40.62,33.633 -48.6,56.704 -27.35,79.078 -25.2,188.757 -25.2,288 0,70.097 -5.4,140.198 -5.4,204.298 -0.01,65.28 1.91,138.34 29.7,179.1 6.16,9.05 14.19,20.46 28.8,21.6" /><path
         id="path66"
         style="fill:#ffffff;fill-opacity:0;fill-rule:evenodd;stroke:none"
         d="m 6277.5,1033.2 c -40.03,0.16 -78.94,1.46 -119.7,0.9 0.32,50.4 -0.91,103.42 -0.9,159.3 0.01,56.4 2.96,128.05 56.7,127.8 10.71,-0.05 23.33,-5.33 30.6,-11.7 25.57,-22.39 32.41,-72.62 32.4,-122.4 0,-53.14 0.72,-105.42 0.9,-153.9" /><path
         id="path68"
         style="fill:#ffffff;fill-opacity:0;fill-rule:evenodd;stroke:none"
         d="m 9254.7,1319.4 c 7.35,-26.56 11.65,-56.15 18.9,-82.8 -19.01,-6.8 -40.53,-11.08 -61.2,-16.2 16.25,30.85 30.31,63.89 42.3,99" /><path
         id="path70"
         style="fill:#423f40;fill-opacity:1;fill-rule:evenodd;stroke:none"
         d="m 535.496,1305.9 c -9.144,-17.25 -14.922,-37.88 -16.195,-63 -39.004,0 -78,0 -117,0 -2.274,21.13 -8.524,43.08 -9,63 47.398,0 94.801,0 142.195,0" /><path
         id="path72"
         style="fill:#423f40;fill-opacity:1;fill-rule:evenodd;stroke:none"
         d="m 629.102,1305.9 c 38.695,0 77.398,0 116.097,0 8.235,-18.77 14.61,-39.39 18,-63 -37.801,0 -75.597,0 -113.398,0 -3.961,23.94 -10.567,45.24 -20.699,63" /><path
         id="path74"
         style="fill:#423f40;fill-opacity:1;fill-rule:evenodd;stroke:none"
         d="m 1099.8,1305.9 c -9.21,-6.23 -17.55,-11.55 -27,-18.9 -11.02,-8.57 -17.82,-21.87 -36,-21.6 -7.94,15.67 5.55,30.24 11.7,40.5 17.1,0 34.2,0 51.3,0" /><path
         id="path76"
         style="fill:#423f40;fill-opacity:1;fill-rule:evenodd;stroke:none"
         d="m 1251,1305.9 c 34.8,0 69.6,0 104.4,0 11.29,-18.71 20.74,-39.26 27,-63 -37.8,0 -75.6,0 -113.4,0 -3.28,23.72 -8.38,45.62 -18,63" /><path
         id="path78"
         style="fill:#423f40;fill-opacity:1;fill-rule:evenodd;stroke:none"
         d="m 1717.2,1305.9 c 36.6,0 73.2,0 109.8,0 -9.59,-16.81 -13.37,-39.43 -16.2,-63 -36.6,0 -73.2,0 -109.8,0 3.01,23.39 7.96,44.84 16.2,63" /><path
         id="path80"
         style="fill:#423f40;fill-opacity:1;fill-rule:evenodd;stroke:none"
         d="m 1923.3,1305 c 15.6,2.1 35.1,0.3 52.2,0.9 11.13,-19.77 21.54,-40.26 29.7,-63 -5.62,1.49 -12.61,-1.93 -18.9,0 -4.57,1.41 -11.44,11.82 -15.3,16.2 -14.84,16.8 -30.88,33.54 -47.7,45.9" /><path
         id="path82"
         style="fill:#423f40;fill-opacity:1;fill-rule:evenodd;stroke:none"
         d="m 2412.9,1305.9 c 0.67,-3.87 -3.04,-8.22 -5.4,-12.6 -6.86,-12.74 -13.78,-30.49 -14.4,-50.4 -40.8,0 -81.6,0 -122.4,0 -1.44,21.36 -7.2,43.2 -7.2,63 49.8,0 99.6,0 149.4,0" /><path
         id="path84"
         style="fill:#423f40;fill-opacity:1;fill-rule:evenodd;stroke:none"
         d="m 2503.8,1305 c 38.4,2.1 80.7,0.3 120.6,0.9 8.23,-18.47 13.95,-39.44 17.1,-63 -38.7,0 -77.4,0 -116.1,0 -4.31,23.59 -9.36,46.44 -21.6,62.1" /><path
         id="path86"
         style="fill:#423f40;fill-opacity:1;fill-rule:evenodd;stroke:none"
         d="m 7538.4,1263.6 c 30.54,3.95 32.6,-60.07 0,-56.7 -23.88,2.47 -25.57,53.4 0,56.7" /><path
         id="path88"
         style="fill:#423f40;fill-opacity:1;fill-rule:evenodd;stroke:none"
         d="m 521.098,1212.3 c 2.851,-21.75 7.039,-42.17 9.902,-63.9 -37.5,0 -75,0 -112.5,0 -4.07,20.82 -7.371,42.43 -10.801,63.9 37.797,0 75.602,0 113.399,0" /><path
         id="path90"
         style="fill:#423f40;fill-opacity:1;fill-rule:evenodd;stroke:none"
         d="m 768.598,1212.3 c 2.746,-21.85 7.332,-41.87 9.902,-63.9 -37.801,0 -75.602,0 -113.398,0 -3.77,20.83 -6.297,42.9 -10.801,63 36.301,2.1 76.5,0.3 114.297,0.9" /><path
         id="path92"
         style="fill:#423f40;fill-opacity:1;fill-rule:evenodd;stroke:none"
         d="m 1388.7,1212.3 c 3.61,-20.99 6.81,-42.39 9.9,-63.9 -46.8,0 -93.6,0 -140.4,0 -1.96,3.04 3.33,4.76 5.4,7.2 9.56,11.31 14.24,30.9 10.8,54 -1.06,0.15 -0.76,1.64 -0.9,2.7 38.4,0 76.8,0 115.2,0" /><path
         id="path94"
         style="fill:#423f40;fill-opacity:1;fill-rule:evenodd;stroke:none"
         d="m 1809.9,1212.3 c 0.16,-22.34 1.6,-43.39 3.6,-63.9 -39.6,0 -79.2,0 -118.8,0 -0.04,22.24 0.07,44.33 2.7,63.9 37.5,0 75,0 112.5,0" /><path
         id="path96"
         style="fill:#423f40;fill-opacity:1;fill-rule:evenodd;stroke:none"
         d="m 2392.2,1212.3 c 1.22,-22.48 5.69,-41.71 7.2,-63.9 -38.4,0 -76.8,0 -115.2,0 -2.86,20.54 -7.34,44.26 -8.1,63.9 38.7,0 77.4,0 116.1,0" /><path
         id="path98"
         style="fill:#423f40;fill-opacity:1;fill-rule:evenodd;stroke:none"
         d="m 2645.1,1212.3 c 3.17,-20.83 5.46,-42.54 8.1,-63.9 -38.7,0 -77.4,0 -116.1,0 -2.27,20.83 -6.77,44.23 -7.2,63.9 38.4,0 76.8,0 115.2,0" /><path
         id="path100"
         style="fill:#423f40;fill-opacity:1;fill-rule:evenodd;stroke:none"
         d="m 536.402,1116.9 c 3.641,-21.25 6.938,-42.86 10.801,-63.9 -37.805,0 -75.601,0 -113.402,0 -3.473,21.13 -6.473,42.73 -10.805,63 36.004,2.1 75.906,0.3 113.406,0.9" /><path
         id="path102"
         style="fill:#423f40;fill-opacity:1;fill-rule:evenodd;stroke:none"
         d="m 783.902,1116.9 c 3.918,-20.98 6.766,-43.03 10.801,-63.9 -38.101,0 -76.203,0 -114.305,0 -2.601,22 -6.847,42.35 -9.902,63.9 37.805,0 75.602,0 113.406,0" /><path
         id="path104"
         style="fill:#423f40;fill-opacity:1;fill-rule:evenodd;stroke:none"
         d="m 1404,1116.9 c 2.82,-21.48 5.92,-42.68 9.9,-63 -36.6,-2.1 -77.1,-0.3 -115.2,-0.9 -1.7,16.6 -4.99,31.61 -7.2,47.7 -19.45,-11.44 -30.91,-30.89 -45,-47.7 -27,0 -54,0 -81,0 -1.7,2.97 2,6 3.6,8.1 14.21,18.65 34.29,39.99 52.2,55.8 60.9,0 121.8,0 182.7,0" /><path
         id="path106"
         style="fill:#423f40;fill-opacity:1;fill-rule:evenodd;stroke:none"
         d="m 1817.1,1116.9 c 2.2,-22.1 5.89,-42.71 9,-63.9 -41.7,0 -83.4,0 -125.1,0 -2.34,19.86 -4.84,44.36 -4.5,63.9 40.2,0 80.4,0 120.6,0" /><path
         id="path108"
         style="fill:#423f40;fill-opacity:1;fill-rule:evenodd;stroke:none"
         d="m 2403.9,1116.9 c 2.71,-21.29 6.06,-41.94 8.1,-63.9 -38.4,0 -76.8,0 -115.2,0 -2.33,21.07 -6.79,44.81 -8.1,63.9 38.4,0 76.8,0 115.2,0" /><path
         id="path110"
         style="fill:#423f40;fill-opacity:1;fill-rule:evenodd;stroke:none"
         d="m 2656.8,1116.9 c 3.38,-20.63 5.47,-42.53 8.1,-63.9 -38.7,0 -77.4,0 -116.1,0 -2.18,21.52 -4.81,42.59 -8.1,63 36.9,2.1 77.7,0.3 116.1,0.9" /><path
         id="path112"
         style="fill:#ffffff;fill-opacity:0;fill-rule:evenodd;stroke:none"
         d="m 4974.3,1088.1 c 0.6,0 1.2,0 1.8,0 5.38,-123.83 11.36,-252.659 17.1,-377.998 2.09,-45.551 2.85,-79.614 -17.1,-108.903 -9.02,-13.258 -26.51,-32.699 -49.5,-25.199 -34.83,11.359 -40.04,76.238 -45.9,121.5 -6.43,49.609 -13.4,101.84 -11.7,155.699 3.55,113.051 42.84,188.741 105.3,234.901" /><path
         id="path114"
         style="fill:#423f40;fill-opacity:1;fill-rule:evenodd;stroke:none"
         d="m 552.602,1022.4 c 2.343,-22.26 7.382,-41.822 9.898,-63.9 -37.5,0 -75,0 -112.5,0 -3.832,21.07 -7.191,42.61 -10.801,63.9 37.805,0 75.602,0 113.403,0" /><path
         id="path116"
         style="fill:#423f40;fill-opacity:1;fill-rule:evenodd;stroke:none"
         d="m 800.102,1022.4 c 2.437,-22.16 7.246,-41.959 9.898,-63.9 -37.797,0 -75.602,0 -113.398,0 -3.356,21.539 -7.114,42.69 -10.801,63.9 38.101,0 76.203,0 114.301,0" /><path
         id="path118"
         style="fill:#423f40;fill-opacity:1;fill-rule:evenodd;stroke:none"
         d="m 1143.9,1022.4 c 29.1,0 58.2,0 87.3,0 -7.59,-19.41 -14.24,-39.771 -17.1,-63.9 -33.3,0 -66.6,0 -99.9,0 7.37,23.828 16.91,45.49 29.7,63.9" /><path
         id="path120"
         style="fill:#423f40;fill-opacity:1;fill-rule:evenodd;stroke:none"
         d="m 1418.4,1022.4 c 3.27,-21.34 6.76,-42.439 9.9,-63.9 -38.1,0 -76.2,0 -114.3,0 -2.27,21.43 -8.46,43.74 -9,63.9 37.8,0 75.6,0 113.4,0" /><path
         id="path122"
         style="fill:#423f40;fill-opacity:1;fill-rule:evenodd;stroke:none"
         d="m 1831.5,1022.4 c 3.11,-20.89 5.71,-42.291 9,-63.002 -41.1,-2.097 -86.1,-0.296 -128.7,-0.898 -1.82,21.27 -6.37,44.63 -7.2,63.9 42.3,0 84.6,0 126.9,0" /><path
         id="path124"
         style="fill:#423f40;fill-opacity:1;fill-rule:evenodd;stroke:none"
         d="m 2416.5,1022.4 c 2.48,-21.53 6.06,-41.939 8.1,-63.9 -38.4,0 -76.8,0 -115.2,0 -1.23,21.871 -7.42,43.58 -7.2,63.9 38.1,0 76.2,0 114.3,0" /><path
         id="path126"
         style="fill:#423f40;fill-opacity:1;fill-rule:evenodd;stroke:none"
         d="m 2668.5,1022.4 c 3.23,-20.76 5.7,-42.298 8.1,-63.9 -38.4,0 -76.8,0 -115.2,0 -2.23,20.879 -7.16,43.84 -7.2,63.9 38.1,0 76.2,0 114.3,0" /><path
         id="path128"
         style="fill:#ffffff;fill-opacity:0;fill-rule:evenodd;stroke:none"
         d="m 8475.3,810.898 c 2.15,-17.976 -16.48,-26.699 -19.8,-41.398 -4.18,-18.469 -4.06,-37.828 -9,-58.5 -32.73,71.672 -79.78,129.02 -135,178.191 8.75,13.161 17.66,26.149 26.1,39.61 44.36,-40.84 89.82,-80.582 137.7,-117.903" /><path
         id="path130"
         style="fill:#423f40;fill-opacity:1;fill-rule:evenodd;stroke:none"
         d="m 567.898,927.898 c 3.813,-21.089 7.739,-42.058 10.801,-63.898 -37.5,0 -75,0 -112.5,0 -3.226,20.77 -9.207,43.59 -9.898,63.898 37.199,0 74.398,0 111.597,0" /><path
         id="path132"
         style="fill:#423f40;fill-opacity:1;fill-rule:evenodd;stroke:none"
         d="m 815.398,927.898 c 3.735,-21.168 7.262,-42.527 10.801,-63.898 -37.801,0 -75.597,0 -113.402,0 -3.676,21.219 -7.336,42.461 -10.793,63.898 37.797,0 75.594,0 113.394,0" /><path
         id="path134"
         style="fill:#423f40;fill-opacity:1;fill-rule:evenodd;stroke:none"
         d="m 1211.4,927.898 c -2.4,-20.769 0.09,-44.25 1.8,-63.898 -38.1,0 -76.2,0 -114.3,0 0.44,23.262 2.42,44.98 7.2,63.898 35.1,0 70.2,0 105.3,0" /><path
         id="path136"
         style="fill:#423f40;fill-opacity:1;fill-rule:evenodd;stroke:none"
         d="m 1433.7,927.898 c 2.64,-21.957 6.59,-42.609 9.9,-63.898 -38.1,0 -76.2,0 -114.3,0 -2.2,21.5 -8.54,43.648 -9,63.898 37.8,0 75.6,0 113.4,0" /><path
         id="path138"
         style="fill:#423f40;fill-opacity:1;fill-rule:evenodd;stroke:none"
         d="m 1844.1,927.898 c 2.17,-21.828 6.01,-41.988 8.1,-63.898 -41.7,0 -83.4,0 -125.1,0 -2.56,21.441 -8.66,44.141 -9.9,63.898 42.3,0 84.6,0 126.9,0" /><path
         id="path140"
         style="fill:#423f40;fill-opacity:1;fill-rule:evenodd;stroke:none"
         d="m 2429.1,927.898 c 3.13,-20.867 5.11,-42.878 9,-63 -36.6,-2.097 -77.1,-0.296 -115.2,-0.898 -3.02,21.281 -5.79,42.809 -9,63.898 38.4,0 76.8,0 115.2,0" /><path
         id="path142"
         style="fill:#423f40;fill-opacity:1;fill-rule:evenodd;stroke:none"
         d="m 2681.1,927.898 c 2.12,-21.589 4.76,-42.636 8.1,-63 -36.6,-2.097 -77.1,-0.296 -115.2,-0.898 -3.67,20.328 -5.2,42.801 -9,63 36.9,2.102 77.7,0.301 116.1,0.898" /><path
         id="path144"
         style="fill:#ffffff;fill-opacity:0;fill-rule:evenodd;stroke:none"
         d="m 8219.7,843.301 c -13.16,-20.43 -27.25,-39.942 -39.6,-61.199 -56.42,37.359 -129.31,61.886 -215.1,54 -80.19,-7.372 -143.05,-41.512 -189,-82.801 -47.16,-42.371 -85.59,-100.41 -101.7,-171 -17.78,-77.922 -3.28,-166.231 28.8,-226.801 30.88,-58.309 75.69,-104.719 135,-137.699 56.91,-31.641 140.05,-51.731 225,-34.199 74.05,15.277 128.79,52.277 173.7,98.089 45.46,46.379 75.46,105.411 87.3,184.508 24.4,-1.699 47.12,-5.078 71.1,-7.199 -11.7,-86.441 -42.92,-151.199 -87.29,-205.199 -44.28,-53.86 -101.81,-97.051 -170.11,-122.403 -75.02,-27.847 -174.66,-32.6363 -252,-9.898 -71.54,21.031 -134.83,60.352 -181.8,110.699 -46.82,50.192 -84.05,113.379 -100.8,191.699 -18.64,87.211 -2.82,183.954 26.1,248.403 29.76,66.308 73.67,118.929 131.4,161.097 57.99,42.364 128.2,73.122 218.7,77.403 104.77,4.949 176.42,-29.301 240.3,-67.5" /><path
         id="path146"
         style="fill:#ffffff;fill-opacity:0;fill-rule:evenodd;stroke:none"
         d="m 9379.8,789.301 c 6.86,-26.141 10.13,-55.871 27,-72 -50.52,-60.121 -90.73,-128.781 -88.2,-234 2.35,-97.973 44.07,-172.77 96.3,-225 54.82,-54.832 126.42,-94.082 225.9,-96.301 99.16,-2.219 175.77,35.199 232.2,87.301 56.94,52.57 98.86,123.801 105.3,216.898 7.2,104.031 -30.28,182.211 -79.2,240.301 -49.22,58.43 -119.13,100.73 -209.7,112.5 -105.15,13.66 -185.56,-22.34 -246.6,-69.301 -4.8,5.403 -7.4,12.992 -12.6,18 0.71,10.629 2.42,20.832 3.6,32.403 1.02,10.046 -1.23,23.617 2.7,32.398 3.25,7.262 30.42,19.398 38.7,23.398 41.24,19.911 98.12,35.973 149.4,38.704 119.68,6.359 208.03,-34.793 272.7,-86.403 67.26,-53.668 117.8,-123 141.3,-217.801 27.1,-108.937 4,-218.738 -39.6,-294.296 -43.99,-76.211 -106.2,-134.512 -188.1,-171 -43.22,-19.25 -88.95,-32.7504 -145.8,-34.2036 -169.54,-4.3086 -286.27,79.9026 -353.7,182.7036 -46.68,71.168 -78.23,175.957 -58.49,288 15.64,88.839 54.34,153.359 105.29,208.796 5.38,5.864 10.62,10.75 17.1,16.204 1,0.847 2.07,5.136 4.5,2.699" /><path
         id="path148"
         style="fill:#423f40;fill-opacity:1;fill-rule:evenodd;stroke:none"
         d="m 584.102,833.398 c 4.414,-20.476 6.91,-42.886 11.699,-63 -36,-2.097 -75.899,-0.296 -113.399,-0.898 -2.769,21.238 -9.265,43.531 -9.902,63.898 37.203,0 74.398,0 111.602,0" /><path
         id="path150"
         style="fill:#423f40;fill-opacity:1;fill-rule:evenodd;stroke:none"
         d="m 831.602,833.398 c 3.449,-21.449 7.531,-42.269 10.8,-63.898 -37.8,0 -75.601,0 -113.402,0 -3.277,21.629 -7.523,42.27 -10.801,63.898 37.801,0 75.602,0 113.403,0" /><path
         id="path152"
         style="fill:#423f40;fill-opacity:1;fill-rule:evenodd;stroke:none"
         d="m 1217.7,833.398 c 2.33,-22.878 8.26,-42.128 11.7,-63.898 -40.5,0 -81,0 -121.5,0 -2.6,20.512 -8.39,42.609 -7.2,63.898 39,0 78,0 117,0" /><path
         id="path154"
         style="fill:#423f40;fill-opacity:1;fill-rule:evenodd;stroke:none"
         d="m 1449,833.398 c 2.55,-22.058 6.85,-42.347 9.9,-63.898 -37.8,0 -75.6,0 -113.4,0 -4.07,20.828 -7.37,42.43 -10.8,63.898 38.1,0 76.2,0 114.3,0" /><path
         id="path156"
         style="fill:#423f40;fill-opacity:1;fill-rule:evenodd;stroke:none"
         d="m 1857.6,833.398 c 3.84,-21.347 6.98,-43.418 12.6,-63 -38.4,-2.097 -80.7,-0.296 -120.6,-0.898 -5.13,21.27 -11.35,41.449 -15.3,63.898 41.1,0 82.2,0 123.3,0" /><path
         id="path158"
         style="fill:#423f40;fill-opacity:1;fill-rule:evenodd;stroke:none"
         d="m 2441.7,833.398 c 3.37,-20.918 6.11,-42.488 9,-63.898 -38.1,0 -76.2,0 -114.3,0 -2.77,20.629 -7.62,43.969 -8.1,63.898 37.8,0 75.6,0 113.4,0" /><path
         id="path160"
         style="fill:#423f40;fill-opacity:1;fill-rule:evenodd;stroke:none"
         d="m 2692.8,833.398 c 2.65,-21.339 5.86,-42.136 8.1,-63.898 -38.1,0 -76.2,0 -114.3,0 -3.54,20.762 -5.68,42.922 -9,63.898 38.4,0 76.8,0 115.2,0" /><path
         id="path162"
         style="fill:#ffffff;fill-opacity:0;fill-rule:evenodd;stroke:none"
         d="m 8398.8,510.301 c -23.81,2.89 -48.52,4.879 -72,8.097 -5.71,107.391 -50.22,175.973 -106.2,233.102 14.5,18.801 25.84,40.762 40.5,59.398 76.15,-69.949 133.37,-158.828 137.7,-300.597" /><path
         id="path164"
         style="fill:#ffffff;fill-opacity:0;fill-rule:evenodd;stroke:none"
         d="m 8141.4,725.398 c -8.69,-15.91 -19.36,-29.839 -28.8,-45 -36.61,24.301 -83.26,39.821 -135.9,35.102 -50.73,-4.551 -91.39,-26.41 -120.6,-52.199 -30.11,-26.59 -54.35,-63.75 -64.8,-108 -11.37,-48.16 -3.98,-104.602 17.1,-144.903 34.99,-66.867 116.38,-132.136 228.6,-109.796 47.02,9.367 82.39,32.707 110.7,62.097 28.4,29.469 48.61,66.91 55.8,117 17.27,-1.929 34.26,-4.14 52.2,-5.398 -17.03,-107.063 -78.79,-178.551 -168.3,-212.403 -50.49,-19.089 -113.56,-20.769 -163.8,-6.296 -90.22,25.976 -163.21,99.777 -183.6,197.097 -11.83,56.481 -1.59,120.371 17.1,162 35.72,79.571 117.97,149.571 228.6,154.801 67.51,3.191 114.14,-19.199 155.7,-44.102" /><path
         id="path166"
         style="fill:#ffffff;fill-opacity:0;fill-rule:evenodd;stroke:none"
         d="m 9445.5,657 c 11.34,-13.57 19.87,-29.93 30.6,-44.102 -18.66,-31.949 -35.01,-61.359 -37.8,-106.207 -4.4,-70.703 20.34,-121.582 55.8,-158.39 35.75,-37.11 81.35,-64.672 145.8,-67.5 63.44,-2.789 118.41,23.969 154.8,59.398 36.08,35.121 62.85,85.371 63,150.301 0.21,92.27 -54.41,158.352 -117.9,189 -35.41,17.09 -83,26.031 -129.6,18 -41.36,-7.129 -75.36,-28.898 -102.6,-48.602 -8.17,15.231 -18.79,28.024 -27,43.204 39.9,31.179 85.97,57.367 151.2,61.199 90.75,5.328 152.67,-30.211 197.1,-72.903 44.95,-43.199 81.25,-102.789 81.9,-188.097 0.62,-81.5 -33.57,-141.551 -77.4,-185.403 -44.21,-44.226 -106.36,-77.148 -184.5,-77.398 -112.82,-0.352 -193.53,66.891 -232.2,142.191 -21.35,41.61 -35.29,95.329 -27,154.809 7.53,54.07 26.9,93.148 55.8,130.5" /><path
         id="path168"
         style="fill:#423f40;fill-opacity:1;fill-rule:evenodd;stroke:none"
         d="m 601.199,738.898 c 3.047,-21.847 7.895,-41.91 10.805,-63.898 -37.5,0 -75,0 -112.5,0 -4.274,20.918 -7.652,42.75 -11.707,63.898 37.805,0 75.601,0 113.402,0" /><path
         id="path170"
         style="fill:#423f40;fill-opacity:1;fill-rule:evenodd;stroke:none"
         d="m 847.797,738.898 c 4.23,-20.968 7.445,-42.957 11.707,-63.898 -37.805,0 -75.602,0 -113.406,0 -4.16,21.039 -7.489,42.91 -11.7,63.898 37.805,0 75.602,0 113.399,0" /><path
         id="path172"
         style="fill:#423f40;fill-opacity:1;fill-rule:evenodd;stroke:none"
         d="m 1236.6,738.898 c 4.7,-21.699 9.44,-43.359 16.2,-63 -38.4,-2.097 -80.7,-0.296 -120.6,-0.898 -5.67,20.43 -14.66,42.34 -16.2,63.898 40.2,0 80.4,0 120.6,0" /><path
         id="path174"
         style="fill:#423f40;fill-opacity:1;fill-rule:evenodd;stroke:none"
         d="m 1464.3,738.898 c 3.48,-21.41 7.16,-42.636 10.8,-63.898 -38.1,0 -76.2,0 -114.3,0 -3.2,21.398 -6.3,42.898 -10.8,63 36.3,2.102 76.5,0.301 114.3,0.898" /><path
         id="path176"
         style="fill:#423f40;fill-opacity:1;fill-rule:evenodd;stroke:none"
         d="m 1877.4,738.898 c 5.2,-22.687 12.87,-42.929 19.8,-63.898 -38.1,0 -76.2,0 -114.3,0 -8.13,20.961 -17,41.199 -23.4,63.898 39.3,0 78.6,0 117.9,0" /><path
         id="path178"
         style="fill:#423f40;fill-opacity:1;fill-rule:evenodd;stroke:none"
         d="m 2455.2,738.898 c 3.02,-21.277 5.79,-42.808 9,-63.898 -38.1,0 -76.2,0 -114.3,0 -2.32,21.078 -7.89,43.711 -8.1,63.898 37.8,0 75.6,0 113.4,0" /><path
         id="path180"
         style="fill:#423f40;fill-opacity:1;fill-rule:evenodd;stroke:none"
         d="m 2705.4,738.898 c 2.3,-21.699 5.89,-42.109 8.1,-63.898 -38.1,0 -76.2,0 -114.3,0 -2.35,21.051 -6.96,44.629 -8.1,63.898 38.1,0 76.2,0 114.3,0" /><path
         id="path182"
         style="fill:#ffffff;fill-opacity:0;fill-rule:evenodd;stroke:none"
         d="m 8257.5,525.602 c -18.15,1.648 -35.27,4.339 -54,5.398 -5.36,50.43 -26.88,84.719 -51.3,116.102 9.95,14.347 19.98,28.617 28.8,44.097 41.3,-39.41 69.96,-91.437 76.5,-165.597" /><path
         id="path184"
         style="fill:#423f40;fill-opacity:1;fill-rule:evenodd;stroke:none"
         d="m 2092.5,675 c -5.7,0 -11.4,0 -17.1,0 0.78,7.859 17.32,10.949 17.1,0" /><path
         id="path186"
         style="fill:#ffffff;fill-opacity:0;fill-rule:evenodd;stroke:none"
         d="m 8081.1,632.699 c -8.7,-14.39 -18.72,-27.48 -27,-42.301 -7.42,3.973 -13.24,8.481 -18.9,10.801 -71.63,29.36 -141.87,-25.328 -142.2,-93.597 -0.27,-57.5 42.74,-103.5 102.6,-103.5 58.27,0 89.44,37.699 100.8,87.296 16.47,-2.136 33.12,-4.078 50.4,-5.398 -9.42,-53.801 -35.74,-87.879 -74.7,-110.699 -42.18,-24.699 -97.8,-29 -145.8,-4.5 -41.85,21.347 -70.81,59 -80.1,104.398 -11.45,55.922 8.53,105.102 39.6,137.699 21.82,22.911 54.57,42.653 96.3,45.903 43.83,3.41 72.59,-10.192 99,-26.102" /><path
         id="path188"
         style="fill:#423f40;fill-opacity:1;fill-rule:evenodd;stroke:none"
         d="m 504.902,644.398 c 37.797,0 75.594,0 113.399,0 4.027,-23.57 6.277,-53.718 20.699,-63.898 -44.699,0 -89.398,0 -134.098,0 15.512,15.012 1.996,42.82 0,63.898" /><path
         id="path190"
         style="fill:#423f40;fill-opacity:1;fill-rule:evenodd;stroke:none"
         d="m 751.5,644.398 c 37.801,0 75.602,0 113.402,0 4.473,-14.886 3.489,-34.097 9,-47.707 3.184,-7.851 10.766,-10.332 13.5,-16.191 -44.703,0 -89.406,0 -134.101,0 -1.91,3.629 5.297,8 6.301,13.5 2.664,14.641 -8.231,35.66 -8.102,50.398" /><path
         id="path192"
         style="fill:#423f40;fill-opacity:1;fill-rule:evenodd;stroke:none"
         d="m 1262.7,644.398 c 9.73,-27.668 26.5,-70.847 63,-57.597 22.09,8.019 30.28,30.551 35.1,57.597 39.9,0 79.8,0 119.7,0 3.96,-25.988 10.13,-71.257 45,-57.597 3.82,1.5 7.78,4.058 11.7,7.199 8,6.379 17.01,24.75 23.4,24.301 12.14,-0.852 5.07,-28.77 5.4,-37.801 -129,0 -258,0 -387,0 -15.1,17.891 -25.33,40.672 -35.1,63.898 39.6,0 79.2,0 118.8,0" /><path
         id="path194"
         style="fill:#423f40;fill-opacity:1;fill-rule:evenodd;stroke:none"
         d="m 1798.2,644.398 c 23.6,0 56.34,0 84.6,0 8.88,0 21.4,1.973 27,0 6.01,-2.117 9.45,-14.457 14.4,-21.597 14.31,-20.641 46.68,-52.289 81.9,-36 24.17,11.168 39.53,35.148 54.9,57.597 9.3,0 18.6,0 27.9,0 -2.74,-23.957 -9.4,-43.988 -16.2,-63.898 -62.13,-0.012 -135.79,0 -202.5,0 -10.08,0 -22.04,-2.012 -28.8,0 -7.09,2.109 -18.43,21.148 -23.4,28.801 -8.69,13.379 -13.69,23.09 -19.8,35.097" /><path
         id="path196"
         style="fill:#423f40;fill-opacity:1;fill-rule:evenodd;stroke:none"
         d="m 2354.4,644.398 c 38.1,0 76.2,0 114.3,0 4.18,-21.328 3.8,-51.988 14.4,-63.898 -41.7,0 -83.4,0 -125.1,0 -2.31,3.129 2.81,5.828 3.6,10.801 2.36,14.847 -7.59,37.508 -7.2,53.097" /><path
         id="path198"
         style="fill:#423f40;fill-opacity:1;fill-rule:evenodd;stroke:none"
         d="m 2603.7,644.398 c 38.1,0 76.2,0 114.3,0 4.04,-21.769 3.04,-53.359 15.3,-63.898 -42,0 -84,0 -126,0 -2.4,2.969 3,6.23 3.6,10.801 1.92,14.597 -8.07,37.109 -7.2,53.097" /><path
         id="path200"
         style="fill:#ffffff;fill-opacity:0;fill-rule:evenodd;stroke:none"
         d="m 9511.2,558.898 c 6.33,-7.937 11.67,-16.507 18,-26.097 5.03,-7.621 15.48,-18.172 17.1,-26.11 1.58,-7.679 -1.01,-11.25 -0.89,-17.992 0.95,-60.238 48.07,-104.449 111.59,-99.898 56.33,4.039 95.99,53.539 92.7,108 -3.17,52.398 -43.88,95.808 -100.8,96.301 -35.5,0.296 -59.94,-15.954 -80.99,-36.903 -8.38,14.422 -17.26,28.352 -27.01,41.403 23.23,26.546 56.96,42.418 101.7,45.898 47.87,3.73 83.6,-19.691 108,-41.398 29.7,-26.43 52.55,-65.454 49.5,-120.602 -4.1,-74.219 -63.43,-137.629 -138.6,-143.102 -63.51,-4.628 -110.06,25.223 -137.7,63.903 -26.17,36.609 -42.32,104.629 -12.6,156.597" /><path
         id="path202"
         style="fill:#ffffff;fill-opacity:0;fill-rule:evenodd;stroke:none"
         d="m 8118,594.898 c 13.3,-14.296 21.44,-33.757 26.1,-56.699 -18.38,1.723 -37.45,2.742 -54,6.301 -2.5,9.219 6.59,16.68 11.7,24.301 5.72,8.551 10.79,17.609 16.2,26.097" /><path
         id="path204"
         style="fill:#423f40;fill-opacity:1;fill-rule:evenodd;stroke:none"
         d="m 485.098,549.898 c 43.57,0 93.183,0 139.504,0 15.339,0 33.496,2.993 45.894,0 6.445,-1.546 10.742,-8.867 17.106,-14.398 4.82,-4.191 15.054,-10.539 13.496,-17.102 -1.844,-7.777 -17.41,-5.398 -25.2,-5.398 -51.289,0 -96.726,0.898 -150.296,0.898 -14.864,0 -51.625,-3.726 -55.801,4.5 -6.934,13.68 11.929,20.75 15.297,31.5" /><path
         id="path206"
         style="fill:#423f40;fill-opacity:1;fill-rule:evenodd;stroke:none"
         d="m 731.699,549.898 c 42.246,0 94.207,0 140.403,0 16.105,0 33.875,2.903 45.894,0 5.777,-1.386 12.727,-9.117 18.004,-14.398 5.676,-5.672 12.961,-11.859 11.699,-19.801 C 933.09,510.93 910.66,513 890.098,513 c -39.493,0 -75.739,0 -118.797,0 -15.379,0 -50.496,-4.02 -54.899,4.5 -6.468,12.512 12.844,23.238 15.297,32.398" /><path
         id="path208"
         style="fill:#423f40;fill-opacity:1;fill-rule:evenodd;stroke:none"
         d="m 1205.1,549 c 51,2.102 105.9,0.301 158.4,0.898 2.23,-3.367 -3.01,-4.058 -4.5,-5.398 -13.17,-11.781 -33.99,-29.859 -56.7,-32.398 -38.35,-4.293 -75.32,16.937 -97.2,36.898" /><path
         id="path210"
         style="fill:#423f40;fill-opacity:1;fill-rule:evenodd;stroke:none"
         d="m 1422,549 c 42.3,2.102 88.5,0.301 132.3,0.898 -11.26,-19.007 -26.33,-37.789 -52.2,-38.699 -34.4,-1.219 -59.17,24.281 -80.1,37.801" /><path
         id="path212"
         style="fill:#423f40;fill-opacity:1;fill-rule:evenodd;stroke:none"
         d="m 1871.1,549 c 58.8,2.102 121.5,0.301 181.8,0.898 1.7,-4.988 -6.44,-10.207 -10.8,-14.398 -13.78,-13.281 -33.76,-23.922 -59.4,-25.199 -45.14,-2.262 -85.91,18.34 -111.6,38.699" /><path
         id="path214"
         style="fill:#423f40;fill-opacity:1;fill-rule:evenodd;stroke:none"
         d="m 2334.6,549.898 c 40.56,0 90.59,0 135,0 15.41,0 32.45,2.813 44.1,0 6.97,-1.679 13.69,-12.179 18.9,-17.097 6.2,-5.86 15.87,-10.051 14.4,-18.903 -5.42,-7.726 -17.59,-4.5 -26.1,-4.5 -58.65,0 -120.85,0 -180.9,0 -8.69,0 -18.89,-1.82 -25.2,4.5 -0.01,18.622 13.2,24.012 19.8,36" /><path
         id="path216"
         style="fill:#423f40;fill-opacity:1;fill-rule:evenodd;stroke:none"
         d="m 2583,549.898 c 40.55,0 90.54,0 135,0 15.76,0 33.22,2.84 45,0 6.83,-1.636 13.82,-12.019 18.9,-17.097 6.04,-6.051 14.86,-11.031 13.5,-19.801 -4.74,-7.082 -16.6,-4.5 -26.1,-4.5 -50.73,0 -96.35,0.898 -150.3,0.898 -15.39,0 -51.77,-4.179 -55.8,4.5 -4.89,10.532 16.59,27.762 19.8,36" /><path
         id="path218"
         style="fill:#ffffff;fill-opacity:0;fill-rule:evenodd;stroke:none"
         d="m 10142.1,484.191 c 0,-161.39 0,-322.8 0,-484.191 -155.1,0 -310.2,0 -465.3,0 144.97,10.0195 246.71,71.2188 324.9,149.398 78.2,78.231 133.9,186.071 140.4,334.793" /><path
         id="path220"
         style="fill:#ffffff;fill-opacity:0;fill-rule:evenodd;stroke:none"
         d="m 8625.6,433.801 c 2.56,-26.84 15.83,-42.973 28.8,-59.403 -8.88,-25.617 -16.62,-52.378 -24.3,-79.199 -13.68,6.531 -26.64,10.512 -43.2,17.102 -7.44,2.961 -19.32,6.98 -22.5,11.699 -8.18,12.141 -4.79,39.98 -2.7,58.5 2.59,23.031 6.27,39.422 9.9,57.602 17.42,-2.68 36.58,-3.622 54,-6.301" /><path
         id="path222"
         style="fill:#423f40;fill-opacity:1;fill-rule:evenodd;stroke:none"
         d="m 353.699,341.102 c 848.161,0 1696.111,0 2544.301,0 0,-10.204 0,-20.403 0,-30.602 -848.48,0 -1696.68,0 -2545.203,0 0,9.301 0,18.602 0,27.898 -0.07,1.27 -0.145,2.551 0.902,2.704" /><path
         id="path224"
         style="fill:#423f40;fill-opacity:1;fill-rule:evenodd;stroke:none"
         d="m 3482.1,341.102 c 1262.15,0 2524.08,0 3786.3,0 0,-10.204 0,-20.403 0,-30.602 -1261.86,0 -2523.39,0 -3785.4,0 -4.13,5.77 -0.65,19.141 -1.8,27.898 -0.08,1.27 -0.15,2.551 0.9,2.704" /><path
         id="path226"
         style="fill:#423f40;fill-opacity:1;fill-rule:evenodd;stroke:none"
         d="m 73.7969,130.5 c 2423.4931,0 4848.5831,0 7272.0031,0 4.99,-0.379 2.55,-6.32 2.7,-9 0.77,-13.961 0.82,-34.3906 -1.8,-45 -2392.81,-0.1289 -4811.07,0.1719 -7211.7,0 -19.937,0 -49.3516,-3.7187 -60.2969,0 -3.6015,1.2188 -1.1367,3.1602 -1.8008,8.1016 -1.6406,12.1679 1.254,31.4374 0,43.1994 -0.0781,1.277 -0.1523,2.551 0.8946,2.699" /></g></g></svg>
